<svg width="562" height="459" viewBox="0 0 562 459" fill="none" xmlns="http://www.w3.org/2000/svg">
<path d="M7.854 91.176C7.106 91.176 6.57067 90.8093 6.248 90.076L0.506 77.184C0.271333 76.6267 0.278667 76.1793 0.528 75.842C0.792 75.49 1.17333 75.314 1.672 75.314C2.09733 75.314 2.41267 75.4093 2.618 75.6C2.838 75.776 3.02133 76.0473 3.168 76.414L7.898 87.392L12.628 76.392C12.7893 76.04 12.98 75.776 13.2 75.6C13.42 75.4093 13.728 75.314 14.124 75.314C14.5933 75.314 14.9453 75.49 15.18 75.842C15.4293 76.194 15.4293 76.6413 15.18 77.184L9.438 90.076C9.27667 90.4427 9.07133 90.7213 8.822 90.912C8.58733 91.088 8.26467 91.176 7.854 91.176ZM20.6231 91.22C19.5084 91.22 18.5404 90.9927 17.7191 90.538C16.8978 90.0833 16.2598 89.438 15.8051 88.602C15.3504 87.7513 15.1231 86.754 15.1231 85.61C15.1231 84.466 15.3504 83.476 15.8051 82.64C16.2598 81.804 16.8978 81.1587 17.7191 80.704C18.5404 80.2493 19.5084 80.022 20.6231 80.022C21.7378 80.022 22.7058 80.2493 23.5271 80.704C24.3484 81.1587 24.9864 81.804 25.4411 82.64C25.8958 83.476 26.1231 84.466 26.1231 85.61C26.1231 86.754 25.8958 87.7513 25.4411 88.602C24.9864 89.438 24.3484 90.0833 23.5271 90.538C22.7058 90.9927 21.7378 91.22 20.6231 91.22ZM20.6231 89.13C21.4444 89.13 22.1044 88.8367 22.6031 88.25C23.1018 87.6487 23.3511 86.7687 23.3511 85.61C23.3511 84.4367 23.1018 83.564 22.6031 82.992C22.1044 82.4053 21.4444 82.112 20.6231 82.112C19.8018 82.112 19.1418 82.4053 18.6431 82.992C18.1444 83.564 17.8951 84.4367 17.8951 85.61C17.8951 86.7687 18.1444 87.6487 18.6431 88.25C19.1418 88.8367 19.8018 89.13 20.6231 89.13ZM33.3649 91.22C32.2356 91.22 31.2529 90.9927 30.4169 90.538C29.5809 90.0687 28.9356 89.4087 28.4809 88.558C28.0262 87.7073 27.7989 86.71 27.7989 85.566C27.7989 84.422 28.0262 83.4393 28.4809 82.618C28.9356 81.782 29.5809 81.144 30.4169 80.704C31.2529 80.2493 32.2356 80.022 33.3649 80.022C33.8489 80.022 34.3696 80.088 34.9269 80.22C35.4989 80.352 36.0342 80.572 36.5329 80.88C36.8262 81.056 36.9949 81.2833 37.0389 81.562C37.0976 81.8407 37.0609 82.0973 36.9289 82.332C36.8116 82.5667 36.6282 82.7353 36.3789 82.838C36.1442 82.9407 35.8729 82.904 35.5649 82.728C34.8902 82.3467 34.2376 82.156 33.6069 82.156C32.6536 82.156 31.9129 82.4567 31.3849 83.058C30.8716 83.6447 30.6149 84.488 30.6149 85.588C30.6149 86.6733 30.8716 87.5313 31.3849 88.162C31.9129 88.778 32.6536 89.086 33.6069 89.086C34.2376 89.086 34.8902 88.9027 35.5649 88.536C35.8729 88.36 36.1442 88.3233 36.3789 88.426C36.6136 88.5287 36.7822 88.7047 36.8849 88.954C36.9876 89.1887 37.0096 89.4453 36.9509 89.724C36.8922 89.988 36.7236 90.208 36.4449 90.384C35.9609 90.6773 35.4476 90.89 34.9049 91.022C34.3622 91.154 33.8489 91.22 33.3649 91.22ZM43.857 91.22C42.6397 91.22 41.591 90.9927 40.711 90.538C39.831 90.0833 39.149 89.438 38.665 88.602C38.1957 87.766 37.961 86.776 37.961 85.632C37.961 84.5173 38.1883 83.542 38.643 82.706C39.1123 81.87 39.7503 81.2173 40.557 80.748C41.3783 80.264 42.3097 80.022 43.351 80.022C44.8763 80.022 46.079 80.506 46.959 81.474C47.8537 82.442 48.301 83.762 48.301 85.434C48.301 85.9767 47.949 86.248 47.245 86.248H40.601C40.8063 88.1693 41.9063 89.13 43.901 89.13C44.2823 89.13 44.7077 89.086 45.177 88.998C45.661 88.8953 46.1157 88.7267 46.541 88.492C46.9223 88.272 47.245 88.206 47.509 88.294C47.773 88.3673 47.9563 88.5213 48.059 88.756C48.1763 88.9907 48.191 89.2547 48.103 89.548C48.0297 89.8267 47.8243 90.0687 47.487 90.274C46.9737 90.5967 46.3797 90.8387 45.705 91C45.045 91.1467 44.429 91.22 43.857 91.22ZM43.461 81.892C42.6543 81.892 42.0017 82.1413 41.503 82.64C41.0043 83.1387 40.7037 83.8133 40.601 84.664H46.013C45.9543 83.7693 45.705 83.0873 45.265 82.618C44.8397 82.134 44.2383 81.892 43.461 81.892ZM46.497 77.866C46.629 78.1007 46.6583 78.3133 46.585 78.504C46.5117 78.6947 46.387 78.8413 46.211 78.944C46.035 79.032 45.8443 79.0613 45.639 79.032C45.4483 79.0027 45.287 78.8853 45.155 78.68L43.373 75.908L41.591 78.68C41.459 78.8853 41.2903 79.0027 41.085 79.032C40.8943 79.0613 40.711 79.032 40.535 78.944C40.359 78.8413 40.2343 78.6947 40.161 78.504C40.0877 78.3133 40.117 78.1007 40.249 77.866L41.833 74.962C42.185 74.302 42.6983 73.972 43.373 73.972C44.0623 73.972 44.583 74.302 44.935 74.962L46.497 77.866ZM59.9935 91.22C59.2162 91.22 58.5195 91.0733 57.9035 90.78C57.3022 90.472 56.8255 90.0613 56.4735 89.548C56.1362 89.0347 55.9675 88.4553 55.9675 87.81C55.9675 87.018 56.1728 86.3947 56.5835 85.94C56.9942 85.4707 57.6615 85.1333 58.5855 84.928C59.5095 84.7227 60.7488 84.62 62.3035 84.62H63.0735V84.158C63.0735 83.4247 62.9122 82.8967 62.5895 82.574C62.2668 82.2513 61.7242 82.09 60.9615 82.09C60.5362 82.09 60.0742 82.1413 59.5755 82.244C59.0915 82.3467 58.5782 82.5227 58.0355 82.772C57.6835 82.9333 57.3902 82.9553 57.1555 82.838C56.9208 82.706 56.7595 82.508 56.6715 82.244C56.5982 81.9653 56.6128 81.6867 56.7155 81.408C56.8328 81.1293 57.0602 80.924 57.3975 80.792C58.0722 80.5133 58.7175 80.3153 59.3335 80.198C59.9642 80.0807 60.5362 80.022 61.0495 80.022C62.6188 80.022 63.7848 80.3887 64.5475 81.122C65.3102 81.8407 65.6915 82.9627 65.6915 84.488V89.768C65.6915 90.7067 65.2662 91.176 64.4155 91.176C63.5502 91.176 63.1175 90.7067 63.1175 89.768V89.284C62.8682 89.8853 62.4722 90.362 61.9295 90.714C61.3868 91.0513 60.7415 91.22 59.9935 91.22ZM60.5655 89.328C61.2842 89.328 61.8782 89.0787 62.3475 88.58C62.8315 88.0813 63.0735 87.4507 63.0735 86.688V86.204H62.3255C60.9468 86.204 59.9862 86.314 59.4435 86.534C58.9155 86.7393 58.6515 87.1207 58.6515 87.678C58.6515 88.162 58.8202 88.558 59.1575 88.866C59.4948 89.174 59.9642 89.328 60.5655 89.328ZM69.8467 78.042C69.3334 78.042 68.9301 77.9173 68.6367 77.668C68.3581 77.404 68.2187 77.0447 68.2187 76.59C68.2187 76.1207 68.3581 75.7613 68.6367 75.512C68.9301 75.2627 69.3334 75.138 69.8467 75.138C70.9321 75.138 71.4747 75.622 71.4747 76.59C71.4747 77.558 70.9321 78.042 69.8467 78.042ZM69.8467 91.154C69.4067 91.154 69.0694 91.022 68.8347 90.758C68.6001 90.494 68.4827 90.1273 68.4827 89.658V81.584C68.4827 80.5867 68.9374 80.088 69.8467 80.088C70.7707 80.088 71.2327 80.5867 71.2327 81.584V89.658C71.2327 90.1273 71.1154 90.494 70.8807 90.758C70.6461 91.022 70.3014 91.154 69.8467 91.154ZM75.4542 91.176C74.5448 91.176 74.0902 90.7067 74.0902 89.768V81.452C74.0902 80.528 74.5375 80.066 75.4322 80.066C76.3268 80.066 76.7742 80.528 76.7742 81.452V81.914C77.1408 81.298 77.6322 80.8287 78.2482 80.506C78.8788 80.1833 79.5828 80.022 80.3602 80.022C82.8975 80.022 84.1662 81.496 84.1662 84.444V89.768C84.1662 90.7067 83.7115 91.176 82.8022 91.176C81.8782 91.176 81.4162 90.7067 81.4162 89.768V84.576C81.4162 83.74 81.2548 83.1313 80.9322 82.75C80.6242 82.3687 80.1402 82.178 79.4802 82.178C78.6735 82.178 78.0282 82.4347 77.5442 82.948C77.0748 83.4467 76.8402 84.114 76.8402 84.95V89.768C76.8402 90.7067 76.3782 91.176 75.4542 91.176ZM91.0953 91.22C90.1566 91.22 89.328 90.9927 88.6093 90.538C87.9053 90.0833 87.3553 89.438 86.9593 88.602C86.5633 87.7513 86.3653 86.754 86.3653 85.61C86.3653 84.4513 86.5633 83.4613 86.9593 82.64C87.3553 81.804 87.9053 81.1587 88.6093 80.704C89.328 80.2493 90.1566 80.022 91.0953 80.022C91.858 80.022 92.5473 80.1907 93.1633 80.528C93.7793 80.8653 94.2413 81.3127 94.5493 81.87V76.7C94.5493 75.776 95.004 75.314 95.9133 75.314C96.8373 75.314 97.2993 75.776 97.2993 76.7V89.768C97.2993 90.7067 96.8446 91.176 95.9353 91.176C95.026 91.176 94.5713 90.7067 94.5713 89.768V89.306C94.2633 89.8927 93.8013 90.362 93.1853 90.714C92.5693 91.0513 91.8726 91.22 91.0953 91.22ZM91.8653 89.13C92.6866 89.13 93.3466 88.8367 93.8453 88.25C94.344 87.6487 94.5933 86.7687 94.5933 85.61C94.5933 84.4367 94.344 83.564 93.8453 82.992C93.3466 82.4053 92.6866 82.112 91.8653 82.112C91.044 82.112 90.384 82.4053 89.8853 82.992C89.3866 83.564 89.1373 84.4367 89.1373 85.61C89.1373 86.7687 89.3866 87.6487 89.8853 88.25C90.384 88.8367 91.044 89.13 91.8653 89.13ZM103.693 91.22C102.915 91.22 102.219 91.0733 101.603 90.78C101.001 90.472 100.525 90.0613 100.173 89.548C99.8354 89.0347 99.6667 88.4553 99.6667 87.81C99.6667 87.018 99.872 86.3947 100.283 85.94C100.693 85.4707 101.361 85.1333 102.285 84.928C103.209 84.7227 104.448 84.62 106.003 84.62H106.773V84.158C106.773 83.4247 106.611 82.8967 106.289 82.574C105.966 82.2513 105.423 82.09 104.661 82.09C104.235 82.09 103.773 82.1413 103.275 82.244C102.791 82.3467 102.277 82.5227 101.735 82.772C101.383 82.9333 101.089 82.9553 100.855 82.838C100.62 82.706 100.459 82.508 100.371 82.244C100.297 81.9653 100.312 81.6867 100.415 81.408C100.532 81.1293 100.759 80.924 101.097 80.792C101.771 80.5133 102.417 80.3153 103.033 80.198C103.663 80.0807 104.235 80.022 104.749 80.022C106.318 80.022 107.484 80.3887 108.247 81.122C109.009 81.8407 109.391 82.9627 109.391 84.488V89.768C109.391 90.7067 108.965 91.176 108.115 91.176C107.249 91.176 106.817 90.7067 106.817 89.768V89.284C106.567 89.8853 106.171 90.362 105.629 90.714C105.086 91.0513 104.441 91.22 103.693 91.22ZM104.265 89.328C104.983 89.328 105.577 89.0787 106.047 88.58C106.531 88.0813 106.773 87.4507 106.773 86.688V86.204H106.025C104.646 86.204 103.685 86.314 103.143 86.534C102.615 86.7393 102.351 87.1207 102.351 87.678C102.351 88.162 102.519 88.558 102.857 88.866C103.194 89.174 103.663 89.328 104.265 89.328ZM119.519 91.176C118.609 91.176 118.155 90.7067 118.155 89.768V81.452C118.155 80.528 118.602 80.066 119.497 80.066C120.391 80.066 120.839 80.528 120.839 81.452V81.914C121.205 81.298 121.697 80.8287 122.313 80.506C122.943 80.1833 123.647 80.022 124.425 80.022C126.962 80.022 128.231 81.496 128.231 84.444V89.768C128.231 90.7067 127.776 91.176 126.867 91.176C125.943 91.176 125.481 90.7067 125.481 89.768V84.576C125.481 83.74 125.319 83.1313 124.997 82.75C124.689 82.3687 124.205 82.178 123.545 82.178C122.738 82.178 122.093 82.4347 121.609 82.948C121.139 83.4467 120.905 84.114 120.905 84.95V89.768C120.905 90.7067 120.443 91.176 119.519 91.176ZM134.566 91.22C133.788 91.22 133.092 91.0733 132.476 90.78C131.874 90.472 131.398 90.0613 131.046 89.548C130.708 89.0347 130.54 88.4553 130.54 87.81C130.54 87.018 130.745 86.3947 131.156 85.94C131.566 85.4707 132.234 85.1333 133.158 84.928C134.082 84.7227 135.321 84.62 136.876 84.62H137.646V84.158C137.646 83.4247 137.484 82.8967 137.162 82.574C136.839 82.2513 136.296 82.09 135.534 82.09C135.108 82.09 134.646 82.1413 134.148 82.244C133.664 82.3467 133.15 82.5227 132.608 82.772C132.256 82.9333 131.962 82.9553 131.728 82.838C131.493 82.706 131.332 82.508 131.244 82.244C131.17 81.9653 131.185 81.6867 131.288 81.408C131.405 81.1293 131.632 80.924 131.97 80.792C132.644 80.5133 133.29 80.3153 133.906 80.198C134.536 80.0807 135.108 80.022 135.622 80.022C137.191 80.022 138.357 80.3887 139.12 81.122C139.882 81.8407 140.264 82.9627 140.264 84.488V89.768C140.264 90.7067 139.838 91.176 138.988 91.176C138.122 91.176 137.69 90.7067 137.69 89.768V89.284C137.44 89.8853 137.044 90.362 136.502 90.714C135.959 91.0513 135.314 91.22 134.566 91.22ZM135.138 89.328C135.856 89.328 136.45 89.0787 136.92 88.58C137.404 88.0813 137.646 87.4507 137.646 86.688V86.204H136.898C135.519 86.204 134.558 86.314 134.016 86.534C133.488 86.7393 133.224 87.1207 133.224 87.678C133.224 88.162 133.392 88.558 133.73 88.866C134.067 89.174 134.536 89.328 135.138 89.328ZM132.146 78.218C131.926 78.2033 131.757 78.13 131.64 77.998C131.522 77.866 131.493 77.6607 131.552 77.382C131.625 76.9713 131.757 76.5753 131.948 76.194C132.153 75.798 132.432 75.468 132.784 75.204C133.136 74.94 133.576 74.808 134.104 74.808C134.47 74.808 134.793 74.8813 135.072 75.028C135.35 75.1747 135.607 75.3433 135.842 75.534C136.076 75.7247 136.311 75.8933 136.546 76.04C136.78 76.1867 137.037 76.26 137.316 76.26C137.624 76.26 137.888 76.1573 138.108 75.952C138.342 75.732 138.489 75.4607 138.548 75.138C138.621 74.8007 138.878 74.6393 139.318 74.654C139.538 74.6687 139.706 74.742 139.824 74.874C139.941 75.006 139.97 75.2113 139.912 75.49C139.838 75.886 139.699 76.282 139.494 76.678C139.288 77.074 139.01 77.404 138.658 77.668C138.32 77.932 137.888 78.064 137.36 78.064C136.993 78.064 136.67 77.9907 136.392 77.844C136.113 77.6973 135.849 77.5287 135.6 77.338C135.365 77.1473 135.13 76.9787 134.896 76.832C134.661 76.6853 134.412 76.612 134.148 76.612C133.84 76.612 133.576 76.7147 133.356 76.92C133.136 77.1253 132.989 77.3967 132.916 77.734C132.842 78.0713 132.586 78.2327 132.146 78.218ZM147.961 91.22C146.846 91.22 145.878 90.9927 145.057 90.538C144.236 90.0833 143.598 89.438 143.143 88.602C142.688 87.7513 142.461 86.754 142.461 85.61C142.461 84.466 142.688 83.476 143.143 82.64C143.598 81.804 144.236 81.1587 145.057 80.704C145.878 80.2493 146.846 80.022 147.961 80.022C149.076 80.022 150.044 80.2493 150.865 80.704C151.686 81.1587 152.324 81.804 152.779 82.64C153.234 83.476 153.461 84.466 153.461 85.61C153.461 86.754 153.234 87.7513 152.779 88.602C152.324 89.438 151.686 90.0833 150.865 90.538C150.044 90.9927 149.076 91.22 147.961 91.22ZM147.961 89.13C148.782 89.13 149.442 88.8367 149.941 88.25C150.44 87.6487 150.689 86.7687 150.689 85.61C150.689 84.4367 150.44 83.564 149.941 82.992C149.442 82.4053 148.782 82.112 147.961 82.112C147.14 82.112 146.48 82.4053 145.981 82.992C145.482 83.564 145.233 84.4367 145.233 85.61C145.233 86.7687 145.482 87.6487 145.981 88.25C146.48 88.8367 147.14 89.13 147.961 89.13ZM163.067 95.136C162.158 95.136 161.703 94.674 161.703 93.75V81.452C161.703 80.528 162.151 80.066 163.045 80.066C163.955 80.066 164.409 80.528 164.409 81.452V81.914C164.717 81.342 165.179 80.8873 165.795 80.55C166.411 80.198 167.115 80.022 167.907 80.022C168.846 80.022 169.667 80.2493 170.371 80.704C171.09 81.1587 171.647 81.804 172.043 82.64C172.439 83.4613 172.637 84.4513 172.637 85.61C172.637 86.754 172.439 87.7513 172.043 88.602C171.647 89.438 171.097 90.0833 170.393 90.538C169.689 90.9927 168.861 91.22 167.907 91.22C167.145 91.22 166.455 91.0587 165.839 90.736C165.238 90.3987 164.776 89.9513 164.453 89.394V93.75C164.453 94.674 163.991 95.136 163.067 95.136ZM167.137 89.13C167.959 89.13 168.619 88.8367 169.117 88.25C169.616 87.6487 169.865 86.7687 169.865 85.61C169.865 84.4367 169.616 83.564 169.117 82.992C168.619 82.4053 167.959 82.112 167.137 82.112C166.316 82.112 165.656 82.4053 165.157 82.992C164.659 83.564 164.409 84.4367 164.409 85.61C164.409 86.7687 164.659 87.6487 165.157 88.25C165.656 88.8367 166.316 89.13 167.137 89.13ZM179.801 91.22C178.686 91.22 177.718 90.9927 176.897 90.538C176.076 90.0833 175.438 89.438 174.983 88.602C174.528 87.7513 174.301 86.754 174.301 85.61C174.301 84.466 174.528 83.476 174.983 82.64C175.438 81.804 176.076 81.1587 176.897 80.704C177.718 80.2493 178.686 80.022 179.801 80.022C180.916 80.022 181.884 80.2493 182.705 80.704C183.526 81.1587 184.164 81.804 184.619 82.64C185.074 83.476 185.301 84.466 185.301 85.61C185.301 86.754 185.074 87.7513 184.619 88.602C184.164 89.438 183.526 90.0833 182.705 90.538C181.884 90.9927 180.916 91.22 179.801 91.22ZM179.801 89.13C180.622 89.13 181.282 88.8367 181.781 88.25C182.28 87.6487 182.529 86.7687 182.529 85.61C182.529 84.4367 182.28 83.564 181.781 82.992C181.282 82.4053 180.622 82.112 179.801 82.112C178.98 82.112 178.32 82.4053 177.821 82.992C177.322 83.564 177.073 84.4367 177.073 85.61C177.073 86.7687 177.322 87.6487 177.821 88.25C178.32 88.8367 178.98 89.13 179.801 89.13ZM191.509 91.22C190.878 91.22 190.211 91.154 189.507 91.022C188.803 90.89 188.172 90.6627 187.615 90.34C187.307 90.164 187.116 89.9513 187.043 89.702C186.969 89.438 186.977 89.196 187.065 88.976C187.167 88.7413 187.329 88.5727 187.549 88.47C187.783 88.3673 188.055 88.3893 188.363 88.536C188.949 88.8147 189.499 89.0127 190.013 89.13C190.526 89.2327 191.032 89.284 191.531 89.284C192.235 89.284 192.755 89.1667 193.093 88.932C193.445 88.6827 193.621 88.36 193.621 87.964C193.621 87.348 193.166 86.952 192.257 86.776L190.057 86.358C188.194 86.006 187.263 85.038 187.263 83.454C187.263 82.75 187.453 82.1413 187.835 81.628C188.231 81.1147 188.773 80.7187 189.463 80.44C190.152 80.1613 190.944 80.022 191.839 80.022C193.129 80.022 194.281 80.308 195.293 80.88C195.571 81.0267 195.733 81.232 195.777 81.496C195.835 81.7453 195.806 81.9873 195.689 82.222C195.586 82.442 195.417 82.6033 195.183 82.706C194.948 82.794 194.677 82.7647 194.369 82.618C193.914 82.3833 193.474 82.2147 193.049 82.112C192.638 82.0093 192.242 81.958 191.861 81.958C191.142 81.958 190.607 82.0827 190.255 82.332C189.917 82.5813 189.749 82.9113 189.749 83.322C189.749 83.9673 190.167 84.3633 191.003 84.51L193.203 84.928C194.156 85.104 194.875 85.4267 195.359 85.896C195.857 86.3653 196.107 86.996 196.107 87.788C196.107 88.8587 195.689 89.702 194.853 90.318C194.017 90.9193 192.902 91.22 191.509 91.22ZM202.251 91.22C201.62 91.22 200.953 91.154 200.249 91.022C199.545 90.89 198.914 90.6627 198.357 90.34C198.049 90.164 197.858 89.9513 197.785 89.702C197.711 89.438 197.719 89.196 197.807 88.976C197.909 88.7413 198.071 88.5727 198.291 88.47C198.525 88.3673 198.797 88.3893 199.105 88.536C199.691 88.8147 200.241 89.0127 200.755 89.13C201.268 89.2327 201.774 89.284 202.273 89.284C202.977 89.284 203.497 89.1667 203.835 88.932C204.187 88.6827 204.363 88.36 204.363 87.964C204.363 87.348 203.908 86.952 202.999 86.776L200.799 86.358C198.936 86.006 198.005 85.038 198.005 83.454C198.005 82.75 198.195 82.1413 198.577 81.628C198.973 81.1147 199.515 80.7187 200.205 80.44C200.894 80.1613 201.686 80.022 202.581 80.022C203.871 80.022 205.023 80.308 206.035 80.88C206.313 81.0267 206.475 81.232 206.519 81.496C206.577 81.7453 206.548 81.9873 206.431 82.222C206.328 82.442 206.159 82.6033 205.925 82.706C205.69 82.794 205.419 82.7647 205.111 82.618C204.656 82.3833 204.216 82.2147 203.791 82.112C203.38 82.0093 202.984 81.958 202.603 81.958C201.884 81.958 201.349 82.0827 200.997 82.332C200.659 82.5813 200.491 82.9113 200.491 83.322C200.491 83.9673 200.909 84.3633 201.745 84.51L203.945 84.928C204.898 85.104 205.617 85.4267 206.101 85.896C206.599 86.3653 206.849 86.996 206.849 87.788C206.849 88.8587 206.431 89.702 205.595 90.318C204.759 90.9193 203.644 91.22 202.251 91.22ZM212.949 91.22C210.309 91.22 208.989 89.7387 208.989 86.776V81.452C208.989 80.528 209.444 80.066 210.353 80.066C211.277 80.066 211.739 80.528 211.739 81.452V86.82C211.739 87.5827 211.893 88.1473 212.201 88.514C212.509 88.8807 213 89.064 213.675 89.064C214.408 89.064 215.01 88.8147 215.479 88.316C215.948 87.8027 216.183 87.128 216.183 86.292V81.452C216.183 80.528 216.638 80.066 217.547 80.066C218.471 80.066 218.933 80.528 218.933 81.452V89.768C218.933 90.7067 218.486 91.176 217.591 91.176C216.696 91.176 216.249 90.7067 216.249 89.768V89.394C215.53 90.6113 214.43 91.22 212.949 91.22ZM223.159 78.042C222.646 78.042 222.243 77.9173 221.949 77.668C221.671 77.404 221.531 77.0447 221.531 76.59C221.531 76.1207 221.671 75.7613 221.949 75.512C222.243 75.2627 222.646 75.138 223.159 75.138C224.245 75.138 224.787 75.622 224.787 76.59C224.787 77.558 224.245 78.042 223.159 78.042ZM223.159 91.154C222.719 91.154 222.382 91.022 222.147 90.758C221.913 90.494 221.795 90.1273 221.795 89.658V81.584C221.795 80.5867 222.25 80.088 223.159 80.088C224.083 80.088 224.545 80.5867 224.545 81.584V89.658C224.545 90.1273 224.428 90.494 224.193 90.758C223.959 91.022 223.614 91.154 223.159 91.154ZM234.739 91.176C233.83 91.176 233.375 90.7067 233.375 89.768V81.452C233.375 80.528 233.823 80.066 234.717 80.066C235.612 80.066 236.059 80.528 236.059 81.452V81.914C236.426 81.298 236.917 80.8287 237.533 80.506C238.164 80.1833 238.868 80.022 239.645 80.022C242.183 80.022 243.451 81.496 243.451 84.444V89.768C243.451 90.7067 242.997 91.176 242.087 91.176C241.163 91.176 240.701 90.7067 240.701 89.768V84.576C240.701 83.74 240.54 83.1313 240.217 82.75C239.909 82.3687 239.425 82.178 238.765 82.178C237.959 82.178 237.313 82.4347 236.829 82.948C236.36 83.4467 236.125 84.114 236.125 84.95V89.768C236.125 90.7067 235.663 91.176 234.739 91.176ZM251.546 91.22C250.329 91.22 249.28 90.9927 248.4 90.538C247.52 90.0833 246.838 89.438 246.354 88.602C245.885 87.766 245.65 86.776 245.65 85.632C245.65 84.5173 245.878 83.542 246.332 82.706C246.802 81.87 247.44 81.2173 248.246 80.748C249.068 80.264 249.999 80.022 251.04 80.022C252.566 80.022 253.768 80.506 254.648 81.474C255.543 82.442 255.99 83.762 255.99 85.434C255.99 85.9767 255.638 86.248 254.934 86.248H248.29C248.496 88.1693 249.596 89.13 251.59 89.13C251.972 89.13 252.397 89.086 252.866 88.998C253.35 88.8953 253.805 88.7267 254.23 88.492C254.612 88.272 254.934 88.206 255.198 88.294C255.462 88.3673 255.646 88.5213 255.748 88.756C255.866 88.9907 255.88 89.2547 255.792 89.548C255.719 89.8267 255.514 90.0687 255.176 90.274C254.663 90.5967 254.069 90.8387 253.394 91C252.734 91.1467 252.118 91.22 251.546 91.22ZM251.15 81.892C250.344 81.892 249.691 82.1413 249.192 82.64C248.694 83.1387 248.393 83.8133 248.29 84.664H253.702C253.644 83.7693 253.394 83.0873 252.954 82.618C252.529 82.134 251.928 81.892 251.15 81.892ZM259.532 91.176C258.623 91.176 258.168 90.7067 258.168 89.768V81.452C258.168 80.528 258.616 80.066 259.51 80.066C260.405 80.066 260.852 80.528 260.852 81.452V81.914C261.219 81.298 261.71 80.8287 262.326 80.506C262.957 80.1833 263.661 80.022 264.438 80.022C266.976 80.022 268.244 81.496 268.244 84.444V89.768C268.244 90.7067 267.79 91.176 266.88 91.176C265.956 91.176 265.494 90.7067 265.494 89.768V84.576C265.494 83.74 265.333 83.1313 265.01 82.75C264.702 82.3687 264.218 82.178 263.558 82.178C262.752 82.178 262.106 82.4347 261.622 82.948C261.153 83.4467 260.918 84.114 260.918 84.95V89.768C260.918 90.7067 260.456 91.176 259.532 91.176ZM272.401 91.176C271.492 91.176 271.037 90.7067 271.037 89.768V76.7C271.037 75.776 271.492 75.314 272.401 75.314C273.325 75.314 273.787 75.776 273.787 76.7V81.804C274.154 81.2173 274.645 80.7773 275.261 80.484C275.877 80.176 276.559 80.022 277.307 80.022C279.845 80.022 281.113 81.496 281.113 84.444V89.768C281.113 90.7067 280.659 91.176 279.749 91.176C278.825 91.176 278.363 90.7067 278.363 89.768V84.576C278.363 83.74 278.202 83.1313 277.879 82.75C277.571 82.3687 277.087 82.178 276.427 82.178C275.621 82.178 274.975 82.4347 274.491 82.948C274.022 83.4467 273.787 84.114 273.787 84.95V89.768C273.787 90.7067 273.325 91.176 272.401 91.176ZM287.801 91.22C285.161 91.22 283.841 89.7387 283.841 86.776V81.452C283.841 80.528 284.295 80.066 285.205 80.066C286.129 80.066 286.591 80.528 286.591 81.452V86.82C286.591 87.5827 286.745 88.1473 287.053 88.514C287.361 88.8807 287.852 89.064 288.527 89.064C289.26 89.064 289.861 88.8147 290.331 88.316C290.8 87.8027 291.035 87.128 291.035 86.292V81.452C291.035 80.528 291.489 80.066 292.399 80.066C293.323 80.066 293.785 80.528 293.785 81.452V89.768C293.785 90.7067 293.337 91.176 292.443 91.176C291.548 91.176 291.101 90.7067 291.101 89.768V89.394C290.382 90.6113 289.282 91.22 287.801 91.22ZM298.055 91.176C297.145 91.176 296.691 90.7067 296.691 89.768V81.452C296.691 80.528 297.138 80.066 298.033 80.066C298.927 80.066 299.375 80.528 299.375 81.452V81.892C299.697 81.3053 300.145 80.8507 300.717 80.528C301.289 80.1907 301.949 80.022 302.697 80.022C304.31 80.022 305.366 80.726 305.865 82.134C306.202 81.474 306.686 80.9607 307.317 80.594C307.947 80.2127 308.666 80.022 309.473 80.022C311.893 80.022 313.103 81.496 313.103 84.444V89.768C313.103 90.7067 312.641 91.176 311.717 91.176C310.807 91.176 310.353 90.7067 310.353 89.768V84.554C310.353 83.7327 310.213 83.1313 309.935 82.75C309.671 82.3687 309.216 82.178 308.571 82.178C307.852 82.178 307.287 82.4347 306.877 82.948C306.466 83.4467 306.261 84.1433 306.261 85.038V89.768C306.261 90.7067 305.806 91.176 304.897 91.176C303.973 91.176 303.511 90.7067 303.511 89.768V84.554C303.511 83.7327 303.371 83.1313 303.093 82.75C302.829 82.3687 302.381 82.178 301.751 82.178C301.032 82.178 300.467 82.4347 300.057 82.948C299.646 83.4467 299.441 84.1433 299.441 85.038V89.768C299.441 90.7067 298.979 91.176 298.055 91.176ZM325.586 91.22C323.137 91.22 321.912 89.8487 321.912 87.106V76.7C321.912 75.776 322.367 75.314 323.276 75.314C324.2 75.314 324.662 75.776 324.662 76.7V86.974C324.662 88.294 325.212 88.954 326.312 88.954C326.43 88.954 326.54 88.954 326.642 88.954C326.745 88.9393 326.848 88.9247 326.95 88.91C327.156 88.8807 327.295 88.9393 327.368 89.086C327.442 89.218 327.478 89.4967 327.478 89.922C327.478 90.2887 327.405 90.5747 327.258 90.78C327.112 90.9853 326.87 91.11 326.532 91.154C326.224 91.198 325.909 91.22 325.586 91.22ZM332.48 91.22C331.702 91.22 331.006 91.0733 330.39 90.78C329.788 90.472 329.312 90.0613 328.96 89.548C328.622 89.0347 328.454 88.4553 328.454 87.81C328.454 87.018 328.659 86.3947 329.07 85.94C329.48 85.4707 330.148 85.1333 331.072 84.928C331.996 84.7227 333.235 84.62 334.79 84.62H335.56V84.158C335.56 83.4247 335.398 82.8967 335.076 82.574C334.753 82.2513 334.21 82.09 333.448 82.09C333.022 82.09 332.56 82.1413 332.062 82.244C331.578 82.3467 331.064 82.5227 330.522 82.772C330.17 82.9333 329.876 82.9553 329.642 82.838C329.407 82.706 329.246 82.508 329.158 82.244C329.084 81.9653 329.099 81.6867 329.202 81.408C329.319 81.1293 329.546 80.924 329.884 80.792C330.558 80.5133 331.204 80.3153 331.82 80.198C332.45 80.0807 333.022 80.022 333.536 80.022C335.105 80.022 336.271 80.3887 337.034 81.122C337.796 81.8407 338.178 82.9627 338.178 84.488V89.768C338.178 90.7067 337.752 91.176 336.902 91.176C336.036 91.176 335.604 90.7067 335.604 89.768V89.284C335.354 89.8853 334.958 90.362 334.416 90.714C333.873 91.0513 333.228 91.22 332.48 91.22ZM333.052 89.328C333.77 89.328 334.364 89.0787 334.834 88.58C335.318 88.0813 335.56 87.4507 335.56 86.688V86.204H334.812C333.433 86.204 332.472 86.314 331.93 86.534C331.402 86.7393 331.138 87.1207 331.138 87.678C331.138 88.162 331.306 88.558 331.644 88.866C331.981 89.174 332.45 89.328 333.052 89.328ZM342.333 91.176C341.424 91.176 340.969 90.7067 340.969 89.768V81.452C340.969 80.528 341.416 80.066 342.311 80.066C343.206 80.066 343.653 80.528 343.653 81.452V81.914C344.02 81.298 344.511 80.8287 345.127 80.506C345.758 80.1833 346.462 80.022 347.239 80.022C349.776 80.022 351.045 81.496 351.045 84.444V89.768C351.045 90.7067 350.59 91.176 349.681 91.176C348.757 91.176 348.295 90.7067 348.295 89.768V84.576C348.295 83.74 348.134 83.1313 347.811 82.75C347.503 82.3687 347.019 82.178 346.359 82.178C345.552 82.178 344.907 82.4347 344.423 82.948C343.954 83.4467 343.719 84.114 343.719 84.95V89.768C343.719 90.7067 343.257 91.176 342.333 91.176ZM358.81 91.22C357.681 91.22 356.698 90.9927 355.862 90.538C355.026 90.0687 354.381 89.4087 353.926 88.558C353.472 87.7073 353.244 86.71 353.244 85.566C353.244 84.422 353.472 83.4393 353.926 82.618C354.381 81.782 355.026 81.144 355.862 80.704C356.698 80.2493 357.681 80.022 358.81 80.022C359.294 80.022 359.815 80.088 360.372 80.22C360.944 80.352 361.48 80.572 361.978 80.88C362.272 81.056 362.44 81.2833 362.484 81.562C362.543 81.8407 362.506 82.0973 362.374 82.332C362.257 82.5667 362.074 82.7353 361.824 82.838C361.59 82.9407 361.318 82.904 361.01 82.728C360.336 82.3467 359.683 82.156 359.052 82.156C358.099 82.156 357.358 82.4567 356.83 83.058C356.317 83.6447 356.06 84.488 356.06 85.588C356.06 86.6733 356.317 87.5313 356.83 88.162C357.358 88.778 358.099 89.086 359.052 89.086C359.683 89.086 360.336 88.9027 361.01 88.536C361.318 88.36 361.59 88.3233 361.824 88.426C362.059 88.5287 362.228 88.7047 362.33 88.954C362.433 89.1887 362.455 89.4453 362.396 89.724C362.338 89.988 362.169 90.208 361.89 90.384C361.406 90.6773 360.893 90.89 360.35 91.022C359.808 91.154 359.294 91.22 358.81 91.22ZM358.678 95.29C358.4 95.29 358.106 95.268 357.798 95.224C357.49 95.1947 357.212 95.136 356.962 95.048C356.669 94.9453 356.5 94.7693 356.456 94.52C356.412 94.2707 356.471 94.058 356.632 93.882C356.808 93.706 357.043 93.6767 357.336 93.794C357.674 93.9113 358.048 93.97 358.458 93.97C359.25 93.97 359.646 93.75 359.646 93.31C359.646 92.9727 359.375 92.804 358.832 92.804C358.73 92.804 358.62 92.804 358.502 92.804C358.4 92.8187 358.29 92.8407 358.172 92.87C357.967 92.9287 357.798 92.9067 357.666 92.804C357.549 92.7013 357.512 92.5107 357.556 92.232L357.798 90.56H359.272L359.052 91.836C359.14 91.8213 359.221 91.814 359.294 91.814C359.896 91.814 360.38 91.9533 360.746 92.232C361.113 92.5107 361.296 92.8993 361.296 93.398C361.296 93.97 361.054 94.4247 360.57 94.762C360.086 95.114 359.456 95.29 358.678 95.29ZM367.693 91.22C366.915 91.22 366.219 91.0733 365.603 90.78C365.001 90.472 364.525 90.0613 364.173 89.548C363.835 89.0347 363.667 88.4553 363.667 87.81C363.667 87.018 363.872 86.3947 364.283 85.94C364.693 85.4707 365.361 85.1333 366.285 84.928C367.209 84.7227 368.448 84.62 370.003 84.62H370.773V84.158C370.773 83.4247 370.611 82.8967 370.289 82.574C369.966 82.2513 369.423 82.09 368.661 82.09C368.235 82.09 367.773 82.1413 367.275 82.244C366.791 82.3467 366.277 82.5227 365.735 82.772C365.383 82.9333 365.089 82.9553 364.855 82.838C364.62 82.706 364.459 82.508 364.371 82.244C364.297 81.9653 364.312 81.6867 364.415 81.408C364.532 81.1293 364.759 80.924 365.097 80.792C365.771 80.5133 366.417 80.3153 367.033 80.198C367.663 80.0807 368.235 80.022 368.749 80.022C370.318 80.022 371.484 80.3887 372.247 81.122C373.009 81.8407 373.391 82.9627 373.391 84.488V89.768C373.391 90.7067 372.965 91.176 372.115 91.176C371.249 91.176 370.817 90.7067 370.817 89.768V89.284C370.567 89.8853 370.171 90.362 369.629 90.714C369.086 91.0513 368.441 91.22 367.693 91.22ZM368.265 89.328C368.983 89.328 369.577 89.0787 370.047 88.58C370.531 88.0813 370.773 87.4507 370.773 86.688V86.204H370.025C368.646 86.204 367.685 86.314 367.143 86.534C366.615 86.7393 366.351 87.1207 366.351 87.678C366.351 88.162 366.519 88.558 366.857 88.866C367.194 89.174 367.663 89.328 368.265 89.328ZM377.59 91.176C376.681 91.176 376.226 90.7067 376.226 89.768V81.452C376.226 80.528 376.673 80.066 377.568 80.066C378.463 80.066 378.91 80.528 378.91 81.452V81.892C379.233 81.3053 379.68 80.8507 380.252 80.528C380.824 80.1907 381.484 80.022 382.232 80.022C383.845 80.022 384.901 80.726 385.4 82.134C385.737 81.474 386.221 80.9607 386.852 80.594C387.483 80.2127 388.201 80.022 389.008 80.022C391.428 80.022 392.638 81.496 392.638 84.444V89.768C392.638 90.7067 392.176 91.176 391.252 91.176C390.343 91.176 389.888 90.7067 389.888 89.768V84.554C389.888 83.7327 389.749 83.1313 389.47 82.75C389.206 82.3687 388.751 82.178 388.106 82.178C387.387 82.178 386.823 82.4347 386.412 82.948C386.001 83.4467 385.796 84.1433 385.796 85.038V89.768C385.796 90.7067 385.341 91.176 384.432 91.176C383.508 91.176 383.046 90.7067 383.046 89.768V84.554C383.046 83.7327 382.907 83.1313 382.628 82.75C382.364 82.3687 381.917 82.178 381.286 82.178C380.567 82.178 380.003 82.4347 379.592 82.948C379.181 83.4467 378.976 84.1433 378.976 85.038V89.768C378.976 90.7067 378.514 91.176 377.59 91.176ZM400.777 91.22C399.56 91.22 398.511 90.9927 397.631 90.538C396.751 90.0833 396.069 89.438 395.585 88.602C395.116 87.766 394.881 86.776 394.881 85.632C394.881 84.5173 395.108 83.542 395.563 82.706C396.032 81.87 396.67 81.2173 397.477 80.748C398.298 80.264 399.23 80.022 400.271 80.022C401.796 80.022 402.999 80.506 403.879 81.474C404.774 82.442 405.221 83.762 405.221 85.434C405.221 85.9767 404.869 86.248 404.165 86.248H397.521C397.726 88.1693 398.826 89.13 400.821 89.13C401.202 89.13 401.628 89.086 402.097 88.998C402.581 88.8953 403.036 88.7267 403.461 88.492C403.842 88.272 404.165 88.206 404.429 88.294C404.693 88.3673 404.876 88.5213 404.979 88.756C405.096 88.9907 405.111 89.2547 405.023 89.548C404.95 89.8267 404.744 90.0687 404.407 90.274C403.894 90.5967 403.3 90.8387 402.625 91C401.965 91.1467 401.349 91.22 400.777 91.22ZM400.381 81.892C399.574 81.892 398.922 82.1413 398.423 82.64C397.924 83.1387 397.624 83.8133 397.521 84.664H402.933C402.874 83.7693 402.625 83.0873 402.185 82.618C401.76 82.134 401.158 81.892 400.381 81.892ZM408.763 91.176C407.853 91.176 407.399 90.7067 407.399 89.768V81.452C407.399 80.528 407.846 80.066 408.741 80.066C409.635 80.066 410.083 80.528 410.083 81.452V81.914C410.449 81.298 410.941 80.8287 411.557 80.506C412.187 80.1833 412.891 80.022 413.669 80.022C416.206 80.022 417.475 81.496 417.475 84.444V89.768C417.475 90.7067 417.02 91.176 416.111 91.176C415.187 91.176 414.725 90.7067 414.725 89.768V84.576C414.725 83.74 414.563 83.1313 414.241 82.75C413.933 82.3687 413.449 82.178 412.789 82.178C411.982 82.178 411.337 82.4347 410.853 82.948C410.383 83.4467 410.149 84.114 410.149 84.95V89.768C410.149 90.7067 409.687 91.176 408.763 91.176ZM425.196 91.22C422.351 91.22 420.928 89.812 420.928 86.996V82.31H419.784C419.051 82.31 418.684 81.9653 418.684 81.276C418.684 80.5867 419.051 80.242 419.784 80.242H420.928V78.24C420.928 77.316 421.39 76.854 422.314 76.854C423.223 76.854 423.678 77.316 423.678 78.24V80.242H426.01C426.743 80.242 427.11 80.5867 427.11 81.276C427.11 81.9653 426.743 82.31 426.01 82.31H423.678V86.842C423.678 87.546 423.832 88.074 424.14 88.426C424.448 88.778 424.947 88.954 425.636 88.954C425.885 88.954 426.105 88.932 426.296 88.888C426.487 88.844 426.655 88.8147 426.802 88.8C426.978 88.7853 427.125 88.844 427.242 88.976C427.359 89.0933 427.418 89.3427 427.418 89.724C427.418 90.0173 427.367 90.2813 427.264 90.516C427.176 90.736 427.007 90.89 426.758 90.978C426.567 91.0367 426.318 91.088 426.01 91.132C425.702 91.1907 425.431 91.22 425.196 91.22ZM433.51 91.22C432.395 91.22 431.427 90.9927 430.606 90.538C429.784 90.0833 429.146 89.438 428.692 88.602C428.237 87.7513 428.01 86.754 428.01 85.61C428.01 84.466 428.237 83.476 428.692 82.64C429.146 81.804 429.784 81.1587 430.606 80.704C431.427 80.2493 432.395 80.022 433.51 80.022C434.624 80.022 435.592 80.2493 436.414 80.704C437.235 81.1587 437.873 81.804 438.328 82.64C438.782 83.476 439.01 84.466 439.01 85.61C439.01 86.754 438.782 87.7513 438.328 88.602C437.873 89.438 437.235 90.0833 436.414 90.538C435.592 90.9927 434.624 91.22 433.51 91.22ZM433.51 89.13C434.331 89.13 434.991 88.8367 435.49 88.25C435.988 87.6487 436.238 86.7687 436.238 85.61C436.238 84.4367 435.988 83.564 435.49 82.992C434.991 82.4053 434.331 82.112 433.51 82.112C432.688 82.112 432.028 82.4053 431.53 82.992C431.031 83.564 430.782 84.4367 430.782 85.61C430.782 86.7687 431.031 87.6487 431.53 88.25C432.028 88.8367 432.688 89.13 433.51 89.13Z" fill="#5B6166"/>
<rect y="249" width="562" height="87.3519" rx="4" fill="#F8F9FA"/>
<path d="M0 253C0 250.791 1.80515 249 4.01429 249V336.352C1.80515 336.352 0 334.561 0 332.352V253Z" fill="#E9ECEF"/>
<path d="M519.85 249H558C560.209 249 562 250.791 562 253V334C562 336.209 560.209 338 558 338H519.85V249Z" fill="#F8F9FA"/>
<rect x="15.0535" y="273.722" width="330.175" height="13.1852" fill="#E9ECEF"/>
<rect x="15.0535" y="300.093" width="76.2714" height="13.1852" fill="#E9ECEF"/>
<rect y="370" width="562" height="87.3519" rx="4" fill="#F8F9FA"/>
<path d="M0 374C0 371.791 1.80515 370 4.01429 370V457.352C1.80515 457.352 0 455.561 0 453.352V374Z" fill="#E9ECEF"/>
<path d="M519.85 370H558C560.209 370 562 371.791 562 374V455C562 457.209 560.209 459 558 459H519.85V370Z" fill="#F8F9FA"/>
<rect x="15.0535" y="394.722" width="330.175" height="13.1852" fill="#E9ECEF"/>
<rect x="15.0535" y="421.093" width="76.2714" height="13.1852" fill="#E9ECEF"/>
<rect y="128" width="562" height="87.3519" rx="4" fill="#F8F9FA"/>
<path d="M0 132C0 129.791 1.80515 128 4.01429 128V215.352C1.80515 215.352 0 213.561 0 211.352V132Z" fill="#E9ECEF"/>
<path d="M519.85 128H558C560.209 128 562 129.791 562 132V213C562 215.209 560.209 217 558 217H519.85V128Z" fill="#F8F9FA"/>
<rect x="15.0535" y="152.722" width="330.175" height="13.1852" fill="#E9ECEF"/>
<rect x="15.0535" y="179.093" width="76.2714" height="13.1852" fill="#E9ECEF"/>
<path d="M10.24 23.704C10.368 23.896 10.432 24.0827 10.432 24.264C10.432 24.5093 10.3307 24.712 10.128 24.872C9.936 25.032 9.70667 25.112 9.44 25.112C9.26933 25.112 9.104 25.0747 8.944 25C8.79467 24.9147 8.66667 24.792 8.56 24.632L6.432 21.4C6.21867 21.0587 5.98933 20.8187 5.744 20.68C5.50933 20.5413 5.2 20.472 4.816 20.472H3.248V24.056C3.248 24.376 3.15733 24.632 2.976 24.824C2.79467 25.0053 2.54933 25.096 2.24 25.096C1.93067 25.096 1.68 25.0053 1.488 24.824C1.30667 24.632 1.216 24.376 1.216 24.056V14.696C1.216 14.3867 1.30133 14.1467 1.472 13.976C1.65333 13.8053 1.89867 13.72 2.208 13.72H6.208C7.488 13.72 8.45867 14.008 9.12 14.584C9.792 15.1493 10.128 15.9707 10.128 17.048C10.128 17.9227 9.87733 18.6427 9.376 19.208C8.88533 19.7627 8.18667 20.12 7.28 20.28C7.58933 20.3547 7.86133 20.488 8.096 20.68C8.33067 20.872 8.56 21.1387 8.784 21.48L10.24 23.704ZM5.92 18.888C6.69867 18.888 7.26933 18.744 7.632 18.456C7.99467 18.1573 8.176 17.704 8.176 17.096C8.176 16.4773 7.99467 16.0293 7.632 15.752C7.26933 15.464 6.69867 15.32 5.92 15.32H3.232V18.888H5.92ZM18.357 22.856C18.5383 22.856 18.6823 22.9253 18.789 23.064C18.9063 23.2027 18.965 23.3893 18.965 23.624C18.965 23.9547 18.7677 24.232 18.373 24.456C18.0103 24.6587 17.5997 24.824 17.141 24.952C16.6823 25.0693 16.245 25.128 15.829 25.128C14.5703 25.128 13.573 24.7653 12.837 24.04C12.101 23.3147 11.733 22.3227 11.733 21.064C11.733 20.264 11.893 19.5547 12.213 18.936C12.533 18.3173 12.981 17.8373 13.557 17.496C14.1437 17.1547 14.805 16.984 15.541 16.984C16.245 16.984 16.8583 17.1387 17.381 17.448C17.9037 17.7573 18.309 18.1947 18.597 18.76C18.885 19.3253 19.029 19.992 19.029 20.76C19.029 21.2187 18.8263 21.448 18.421 21.448H13.701C13.765 22.184 13.973 22.728 14.325 23.08C14.677 23.4213 15.189 23.592 15.861 23.592C16.2023 23.592 16.501 23.5493 16.757 23.464C17.0237 23.3787 17.3223 23.2613 17.653 23.112C17.973 22.9413 18.2077 22.856 18.357 22.856ZM15.589 18.392C15.045 18.392 14.6077 18.5627 14.277 18.904C13.957 19.2453 13.765 19.736 13.701 20.376H17.317C17.2957 19.7253 17.1357 19.2347 16.837 18.904C16.5383 18.5627 16.1223 18.392 15.589 18.392ZM23.497 25.128C22.3343 25.128 21.3957 24.8987 20.681 24.44C20.3397 24.2373 20.169 23.9493 20.169 23.576C20.169 23.3627 20.2277 23.192 20.345 23.064C20.4623 22.9253 20.6063 22.856 20.777 22.856C20.9583 22.856 21.209 22.9413 21.529 23.112C21.8703 23.272 22.1797 23.3947 22.457 23.48C22.745 23.5653 23.1077 23.608 23.545 23.608C23.993 23.608 24.3397 23.5333 24.585 23.384C24.841 23.2347 24.969 23.0267 24.969 22.76C24.969 22.5787 24.9157 22.4347 24.809 22.328C24.713 22.2213 24.5317 22.1253 24.265 22.04C24.009 21.944 23.6143 21.8373 23.081 21.72C22.1317 21.528 21.449 21.256 21.033 20.904C20.6277 20.552 20.425 20.0667 20.425 19.448C20.425 18.9787 20.5637 18.5573 20.841 18.184C21.1183 17.8 21.497 17.5067 21.977 17.304C22.4677 17.0907 23.0223 16.984 23.641 16.984C24.089 16.984 24.521 17.0427 24.937 17.16C25.353 17.2667 25.7263 17.4267 26.057 17.64C26.3983 17.8533 26.569 18.136 26.569 18.488C26.569 18.7013 26.5103 18.8827 26.393 19.032C26.2757 19.1707 26.1317 19.24 25.961 19.24C25.8437 19.24 25.7263 19.2187 25.609 19.176C25.5023 19.1227 25.3637 19.048 25.193 18.952C24.8837 18.792 24.617 18.6747 24.393 18.6C24.169 18.5147 23.8917 18.472 23.561 18.472C23.1663 18.472 22.8517 18.552 22.617 18.712C22.393 18.872 22.281 19.0907 22.281 19.368C22.281 19.6347 22.3983 19.8373 22.633 19.976C22.8677 20.1147 23.321 20.2533 23.993 20.392C24.7077 20.5413 25.2677 20.712 25.673 20.904C26.0783 21.096 26.3663 21.336 26.537 21.624C26.7183 21.912 26.809 22.28 26.809 22.728C26.809 23.4533 26.505 24.0347 25.897 24.472C25.2997 24.9093 24.4997 25.128 23.497 25.128ZM34.6066 17.016C34.916 17.016 35.1613 17.1013 35.3426 17.272C35.524 17.4427 35.6146 17.672 35.6146 17.96V24.168C35.6146 24.4453 35.5186 24.6693 35.3266 24.84C35.1453 25.0107 34.9053 25.096 34.6066 25.096C34.3186 25.096 34.0893 25.016 33.9186 24.856C33.748 24.696 33.6626 24.4773 33.6626 24.2V23.8C33.4173 24.2267 33.0866 24.5573 32.6706 24.792C32.2546 25.016 31.7853 25.128 31.2626 25.128C29.3426 25.128 28.3826 24.0507 28.3826 21.896V17.96C28.3826 17.672 28.4733 17.4427 28.6546 17.272C28.836 17.1013 29.076 17.016 29.3746 17.016C29.684 17.016 29.9293 17.1013 30.1106 17.272C30.292 17.4427 30.3826 17.672 30.3826 17.96V21.912C30.3826 22.4667 30.4946 22.8773 30.7186 23.144C30.9426 23.4107 31.2946 23.544 31.7746 23.544C32.3293 23.544 32.772 23.3627 33.1026 23C33.444 22.6267 33.6146 22.136 33.6146 21.528V17.96C33.6146 17.672 33.7053 17.4427 33.8866 17.272C34.068 17.1013 34.308 17.016 34.6066 17.016ZM46.9923 16.984C47.8456 16.984 48.4963 17.24 48.9443 17.752C49.4029 18.2533 49.6323 19.0693 49.6323 20.2V24.136C49.6323 24.4453 49.5363 24.6853 49.3443 24.856C49.1629 25.016 48.9229 25.096 48.6243 25.096C48.3363 25.096 48.0963 25.016 47.9043 24.856C47.7229 24.6853 47.6323 24.4453 47.6323 24.136V20.2C47.6323 19.6133 47.5256 19.1973 47.3123 18.952C47.1096 18.696 46.7949 18.568 46.3683 18.568C45.8456 18.568 45.4296 18.7493 45.1203 19.112C44.8109 19.464 44.6562 19.9493 44.6562 20.568V24.136C44.6562 24.4453 44.5603 24.6853 44.3683 24.856C44.1869 25.016 43.9523 25.096 43.6643 25.096C43.3763 25.096 43.1363 25.016 42.9443 24.856C42.7523 24.6853 42.6563 24.4453 42.6563 24.136V20.2C42.6563 19.6133 42.5496 19.1973 42.3363 18.952C42.1336 18.696 41.8189 18.568 41.3923 18.568C40.8696 18.568 40.4536 18.7493 40.1443 19.112C39.8456 19.464 39.6963 19.9493 39.6963 20.568V24.136C39.6963 24.4453 39.6003 24.6853 39.4083 24.856C39.2163 25.016 38.9763 25.096 38.6883 25.096C38.4003 25.096 38.1603 25.016 37.9683 24.856C37.7869 24.6853 37.6963 24.4453 37.6963 24.136V17.944C37.6963 17.6453 37.7923 17.416 37.9843 17.256C38.1763 17.096 38.4163 17.016 38.7043 17.016C38.9816 17.016 39.2056 17.096 39.3763 17.256C39.5576 17.4053 39.6483 17.624 39.6483 17.912V18.296C39.8936 17.8693 40.2189 17.544 40.6243 17.32C41.0403 17.096 41.5149 16.984 42.0483 16.984C43.2216 16.984 44.0056 17.4747 44.4003 18.456C44.6349 18.008 44.9816 17.6507 45.4403 17.384C45.8989 17.1173 46.4163 16.984 46.9923 16.984ZM55.233 25.128C54.433 25.128 53.729 24.9627 53.121 24.632C52.5237 24.3013 52.0597 23.8267 51.729 23.208C51.3983 22.5893 51.233 21.8693 51.233 21.048C51.233 20.2267 51.3983 19.512 51.729 18.904C52.0597 18.2853 52.5237 17.8107 53.121 17.48C53.729 17.1493 54.433 16.984 55.233 16.984C56.033 16.984 56.7317 17.1493 57.329 17.48C57.937 17.8107 58.401 18.2853 58.721 18.904C59.0517 19.512 59.217 20.2267 59.217 21.048C59.217 21.8693 59.0517 22.5893 58.721 23.208C58.401 23.8267 57.937 24.3013 57.329 24.632C56.7317 24.9627 56.033 25.128 55.233 25.128ZM55.217 23.576C55.8677 23.576 56.3637 23.3627 56.705 22.936C57.0463 22.5093 57.217 21.88 57.217 21.048C57.217 20.2267 57.0463 19.6027 56.705 19.176C56.3637 18.7387 55.873 18.52 55.233 18.52C54.593 18.52 54.097 18.7387 53.745 19.176C53.4037 19.6027 53.233 20.2267 53.233 21.048C53.233 21.88 53.4037 22.5093 53.745 22.936C54.0863 23.3627 54.577 23.576 55.217 23.576ZM71.9319 15.592C71.5692 15.592 71.2812 15.496 71.0679 15.304C70.8545 15.1013 70.7479 14.84 70.7479 14.52C70.7479 14.2 70.8545 13.944 71.0679 13.752C71.2812 13.56 71.5692 13.464 71.9319 13.464C72.2839 13.464 72.5665 13.56 72.7799 13.752C73.0039 13.944 73.1159 14.2 73.1159 14.52C73.1159 14.84 73.0039 15.1013 72.7799 15.304C72.5665 15.496 72.2839 15.592 71.9319 15.592ZM72.0279 17.176C72.6252 17.176 72.9239 17.4267 72.9239 17.928V24.136C72.9239 24.4453 72.8279 24.6853 72.6359 24.856C72.4545 25.016 72.2199 25.096 71.9319 25.096C71.6439 25.096 71.4039 25.016 71.2119 24.856C71.0199 24.6853 70.9239 24.4453 70.9239 24.136V18.68H67.7559V24.136C67.7559 24.4453 67.6599 24.68 67.4679 24.84C67.2865 25 67.0519 25.08 66.7639 25.08C66.4759 25.08 66.2359 25 66.0439 24.84C65.8519 24.68 65.7559 24.4453 65.7559 24.136V18.68H64.9559C64.3585 18.68 64.0599 18.4293 64.0599 17.928C64.0599 17.4267 64.3585 17.176 64.9559 17.176H65.7559V17.096C65.7559 16.104 66.0172 15.32 66.5399 14.744C67.0732 14.1573 67.8199 13.8213 68.7799 13.736L69.1479 13.704C69.2012 13.6933 69.2812 13.688 69.3879 13.688C69.9532 13.688 70.2359 13.928 70.2359 14.408C70.2359 14.6427 70.1719 14.824 70.0439 14.952C69.9159 15.08 69.7399 15.1547 69.5159 15.176L69.1639 15.208C68.6732 15.2507 68.3159 15.4053 68.0919 15.672C67.8679 15.928 67.7559 16.3067 67.7559 16.808V17.176H72.0279ZM79.5528 16.984C80.4914 16.984 81.1901 17.2507 81.6488 17.784C82.1074 18.3173 82.3368 19.1227 82.3368 20.2V24.136C82.3368 24.4347 82.2461 24.6693 82.0648 24.84C81.8941 25.0107 81.6541 25.096 81.3448 25.096C81.0354 25.096 80.7901 25.0107 80.6088 24.84C80.4274 24.6693 80.3368 24.4347 80.3368 24.136V20.312C80.3368 19.704 80.2194 19.2613 79.9848 18.984C79.7608 18.7067 79.4034 18.568 78.9128 18.568C78.3368 18.568 77.8728 18.7493 77.5208 19.112C77.1794 19.4747 77.0088 19.96 77.0088 20.568V24.136C77.0088 24.4347 76.9181 24.6693 76.7368 24.84C76.5554 25.0107 76.3101 25.096 76.0008 25.096C75.6914 25.096 75.4461 25.0107 75.2648 24.84C75.0941 24.6693 75.0088 24.4347 75.0088 24.136V17.944C75.0088 17.6667 75.0994 17.4427 75.2808 17.272C75.4621 17.1013 75.7074 17.016 76.0168 17.016C76.2941 17.016 76.5181 17.1013 76.6888 17.272C76.8701 17.432 76.9608 17.6453 76.9608 17.912V18.344C77.2274 17.9067 77.5848 17.5707 78.0328 17.336C78.4808 17.1013 78.9874 16.984 79.5528 16.984ZM87.7601 16.984C88.8481 16.984 89.6535 17.256 90.1761 17.8C90.7095 18.3333 90.9761 19.1493 90.9761 20.248V24.152C90.9761 24.44 90.8908 24.6693 90.7201 24.84C90.5495 25 90.3148 25.08 90.0161 25.08C89.7388 25.08 89.5095 24.9947 89.3281 24.824C89.1575 24.6533 89.0721 24.4293 89.0721 24.152V23.8C88.8908 24.216 88.6028 24.5413 88.2081 24.776C87.8241 25.0107 87.3761 25.128 86.8641 25.128C86.3415 25.128 85.8668 25.0213 85.4401 24.808C85.0135 24.5947 84.6775 24.3013 84.4321 23.928C84.1868 23.5547 84.0641 23.1387 84.0641 22.68C84.0641 22.104 84.2081 21.6507 84.4961 21.32C84.7948 20.9893 85.2748 20.7493 85.9361 20.6C86.5975 20.4507 87.5095 20.376 88.6721 20.376H89.0721V20.008C89.0721 19.4853 88.9601 19.1067 88.7361 18.872C88.5121 18.6267 88.1495 18.504 87.6481 18.504C87.3388 18.504 87.0241 18.552 86.7041 18.648C86.3841 18.7333 86.0055 18.8613 85.5681 19.032C85.2908 19.1707 85.0881 19.24 84.9601 19.24C84.7681 19.24 84.6081 19.1707 84.4801 19.032C84.3628 18.8933 84.3041 18.712 84.3041 18.488C84.3041 18.3067 84.3468 18.152 84.4321 18.024C84.5281 17.8853 84.6828 17.7573 84.8961 17.64C85.2695 17.4373 85.7121 17.2773 86.2241 17.16C86.7468 17.0427 87.2588 16.984 87.7601 16.984ZM87.2641 23.688C87.7975 23.688 88.2295 23.512 88.5601 23.16C88.9015 22.7973 89.0721 22.3333 89.0721 21.768V21.432H88.7841C88.0695 21.432 87.5148 21.464 87.1201 21.528C86.7255 21.592 86.4428 21.704 86.2721 21.864C86.1015 22.024 86.0161 22.2427 86.0161 22.52C86.0161 22.8613 86.1335 23.144 86.3681 23.368C86.6135 23.5813 86.9121 23.688 87.2641 23.688ZM97.5528 16.984C98.4914 16.984 99.1901 17.2507 99.6488 17.784C100.107 18.3173 100.337 19.1227 100.337 20.2V24.136C100.337 24.4347 100.246 24.6693 100.065 24.84C99.8941 25.0107 99.6541 25.096 99.3448 25.096C99.0354 25.096 98.7901 25.0107 98.6088 24.84C98.4274 24.6693 98.3368 24.4347 98.3368 24.136V20.312C98.3368 19.704 98.2194 19.2613 97.9848 18.984C97.7608 18.7067 97.4034 18.568 96.9128 18.568C96.3368 18.568 95.8728 18.7493 95.5208 19.112C95.1794 19.4747 95.0088 19.96 95.0088 20.568V24.136C95.0088 24.4347 94.9181 24.6693 94.7368 24.84C94.5554 25.0107 94.3101 25.096 94.0008 25.096C93.6914 25.096 93.4461 25.0107 93.2648 24.84C93.0941 24.6693 93.0088 24.4347 93.0088 24.136V17.944C93.0088 17.6667 93.0994 17.4427 93.2808 17.272C93.4621 17.1013 93.7074 17.016 94.0168 17.016C94.2941 17.016 94.5181 17.1013 94.6888 17.272C94.8701 17.432 94.9608 17.6453 94.9608 17.912V18.344C95.2274 17.9067 95.5848 17.5707 96.0328 17.336C96.4808 17.1013 96.9874 16.984 97.5528 16.984ZM105.84 25.128C105.061 25.128 104.373 24.9627 103.776 24.632C103.189 24.3013 102.736 23.832 102.416 23.224C102.096 22.616 101.936 21.9067 101.936 21.096C101.936 20.2853 102.101 19.5707 102.432 18.952C102.773 18.3227 103.248 17.8373 103.856 17.496C104.464 17.1547 105.163 16.984 105.952 16.984C106.368 16.984 106.784 17.0427 107.2 17.16C107.627 17.2773 108 17.4373 108.32 17.64C108.661 17.864 108.832 18.1467 108.832 18.488C108.832 18.7227 108.773 18.9147 108.656 19.064C108.549 19.2027 108.405 19.272 108.224 19.272C108.107 19.272 107.984 19.2453 107.856 19.192C107.728 19.1387 107.6 19.0747 107.472 19C107.237 18.8613 107.013 18.7547 106.8 18.68C106.587 18.5947 106.341 18.552 106.064 18.552C105.403 18.552 104.891 18.7707 104.528 19.208C104.176 19.6347 104 20.2533 104 21.064C104 21.864 104.176 22.4827 104.528 22.92C104.891 23.3467 105.403 23.56 106.064 23.56C106.331 23.56 106.565 23.5227 106.768 23.448C106.981 23.3627 107.216 23.2507 107.472 23.112C107.632 23.016 107.771 22.9467 107.888 22.904C108.005 22.8507 108.123 22.824 108.24 22.824C108.411 22.824 108.555 22.8987 108.672 23.048C108.789 23.1973 108.848 23.384 108.848 23.608C108.848 23.7893 108.805 23.9493 108.72 24.088C108.645 24.216 108.517 24.3333 108.336 24.44C108.005 24.6533 107.621 24.824 107.184 24.952C106.747 25.0693 106.299 25.128 105.84 25.128ZM116.373 22.856C116.554 22.856 116.698 22.9253 116.805 23.064C116.922 23.2027 116.981 23.3893 116.981 23.624C116.981 23.9547 116.783 24.232 116.389 24.456C116.026 24.6587 115.615 24.824 115.157 24.952C114.698 25.0693 114.261 25.128 113.845 25.128C112.586 25.128 111.589 24.7653 110.853 24.04C110.117 23.3147 109.749 22.3227 109.749 21.064C109.749 20.264 109.909 19.5547 110.229 18.936C110.549 18.3173 110.997 17.8373 111.573 17.496C112.159 17.1547 112.821 16.984 113.557 16.984C114.261 16.984 114.874 17.1387 115.397 17.448C115.919 17.7573 116.325 18.1947 116.613 18.76C116.901 19.3253 117.045 19.992 117.045 20.76C117.045 21.2187 116.842 21.448 116.437 21.448H111.717C111.781 22.184 111.989 22.728 112.341 23.08C112.693 23.4213 113.205 23.592 113.877 23.592C114.218 23.592 114.517 23.5493 114.773 23.464C115.039 23.3787 115.338 23.2613 115.669 23.112C115.989 22.9413 116.223 22.856 116.373 22.856ZM113.605 18.392C113.061 18.392 112.623 18.5627 112.293 18.904C111.973 19.2453 111.781 19.736 111.717 20.376H115.333C115.311 19.7253 115.151 19.2347 114.853 18.904C114.554 18.5627 114.138 18.392 113.605 18.392ZM119.673 25.096C119.385 25.096 119.145 25.016 118.953 24.856C118.771 24.6853 118.681 24.4453 118.681 24.136V17.96C118.681 17.6507 118.771 17.416 118.953 17.256C119.145 17.096 119.385 17.016 119.673 17.016C119.961 17.016 120.201 17.096 120.393 17.256C120.585 17.416 120.681 17.6507 120.681 17.96V24.136C120.681 24.4453 120.585 24.6853 120.393 24.856C120.201 25.016 119.961 25.096 119.673 25.096ZM119.673 15.592C119.31 15.592 119.022 15.496 118.809 15.304C118.595 15.1013 118.489 14.84 118.489 14.52C118.489 14.2 118.595 13.944 118.809 13.752C119.022 13.56 119.31 13.464 119.673 13.464C120.025 13.464 120.307 13.56 120.521 13.752C120.745 13.944 120.857 14.2 120.857 14.52C120.857 14.84 120.75 15.1013 120.537 15.304C120.323 15.496 120.035 15.592 119.673 15.592ZM127.111 17.016C127.388 16.9947 127.607 17.0533 127.767 17.192C127.927 17.3307 128.007 17.5387 128.007 17.816C128.007 18.104 127.938 18.3173 127.799 18.456C127.66 18.5947 127.41 18.6853 127.047 18.728L126.567 18.776C125.938 18.84 125.474 19.0533 125.175 19.416C124.887 19.7787 124.743 20.232 124.743 20.776V24.136C124.743 24.4453 124.647 24.6853 124.455 24.856C124.263 25.016 124.023 25.096 123.735 25.096C123.447 25.096 123.207 25.016 123.015 24.856C122.834 24.6853 122.743 24.4453 122.743 24.136V17.944C122.743 17.6453 122.834 17.416 123.015 17.256C123.207 17.096 123.442 17.016 123.719 17.016C123.996 17.016 124.22 17.096 124.391 17.256C124.562 17.4053 124.647 17.624 124.647 17.912V18.552C124.85 18.0827 125.148 17.72 125.543 17.464C125.948 17.208 126.396 17.064 126.887 17.032L127.111 17.016ZM132.28 25.128C131.48 25.128 130.776 24.9627 130.168 24.632C129.571 24.3013 129.107 23.8267 128.776 23.208C128.445 22.5893 128.28 21.8693 128.28 21.048C128.28 20.2267 128.445 19.512 128.776 18.904C129.107 18.2853 129.571 17.8107 130.168 17.48C130.776 17.1493 131.48 16.984 132.28 16.984C133.08 16.984 133.779 17.1493 134.376 17.48C134.984 17.8107 135.448 18.2853 135.768 18.904C136.099 19.512 136.264 20.2267 136.264 21.048C136.264 21.8693 136.099 22.5893 135.768 23.208C135.448 23.8267 134.984 24.3013 134.376 24.632C133.779 24.9627 133.08 25.128 132.28 25.128ZM132.264 23.576C132.915 23.576 133.411 23.3627 133.752 22.936C134.093 22.5093 134.264 21.88 134.264 21.048C134.264 20.2267 134.093 19.6027 133.752 19.176C133.411 18.7387 132.92 18.52 132.28 18.52C131.64 18.52 131.144 18.7387 130.792 19.176C130.451 19.6027 130.28 20.2267 130.28 21.048C130.28 21.88 130.451 22.5093 130.792 22.936C131.133 23.3627 131.624 23.576 132.264 23.576Z" fill="#212529"/>
<rect x="280.7" y="0.7" width="67.6" height="38.6" rx="7.3" fill="#FD377E"/>
<path d="M299.615 24.57C299.4 24.57 299.223 24.5047 299.083 24.374C298.952 24.234 298.887 24.0567 298.887 23.842V15.834H296.087C295.639 15.834 295.415 15.6333 295.415 15.232C295.415 15.036 295.471 14.8867 295.583 14.784C295.704 14.6813 295.872 14.63 296.087 14.63H303.143C303.357 14.63 303.521 14.6813 303.633 14.784C303.754 14.8867 303.815 15.036 303.815 15.232C303.815 15.6333 303.591 15.834 303.143 15.834H300.343V23.842C300.343 24.0567 300.277 24.234 300.147 24.374C300.016 24.5047 299.839 24.57 299.615 24.57ZM306.731 24.598C306.059 24.598 305.467 24.4533 304.953 24.164C304.449 23.8747 304.057 23.464 303.777 22.932C303.507 22.3907 303.371 21.7653 303.371 21.056C303.371 20.3373 303.507 19.712 303.777 19.18C304.057 18.6387 304.449 18.2233 304.953 17.934C305.467 17.6447 306.059 17.5 306.731 17.5C307.403 17.5 307.991 17.6447 308.495 17.934C309.009 18.2233 309.401 18.6387 309.671 19.18C309.951 19.712 310.091 20.3373 310.091 21.056C310.091 21.7653 309.951 22.3907 309.671 22.932C309.401 23.464 309.009 23.8747 308.495 24.164C307.991 24.4533 307.403 24.598 306.731 24.598ZM306.731 23.478C307.357 23.478 307.833 23.2727 308.159 22.862C308.495 22.4513 308.663 21.8493 308.663 21.056C308.663 20.272 308.495 19.6747 308.159 19.264C307.823 18.844 307.347 18.634 306.731 18.634C306.115 18.634 305.639 18.844 305.303 19.264C304.967 19.6747 304.799 20.272 304.799 21.056C304.799 21.8493 304.963 22.4513 305.289 22.862C305.625 23.2727 306.106 23.478 306.731 23.478ZM317.252 14.56C317.466 14.56 317.639 14.6207 317.77 14.742C317.9 14.8633 317.966 15.0267 317.966 15.232V23.884C317.966 24.0987 317.9 24.2667 317.77 24.388C317.648 24.5093 317.48 24.57 317.266 24.57C317.051 24.57 316.878 24.5093 316.748 24.388C316.626 24.2667 316.566 24.0987 316.566 23.884V23.324C316.36 23.7347 316.062 24.052 315.67 24.276C315.278 24.4907 314.825 24.598 314.312 24.598C313.724 24.598 313.196 24.4487 312.73 24.15C312.272 23.8513 311.913 23.4313 311.652 22.89C311.4 22.3487 311.274 21.728 311.274 21.028C311.274 20.3187 311.4 19.698 311.652 19.166C311.913 18.634 312.272 18.2233 312.73 17.934C313.187 17.6447 313.714 17.5 314.312 17.5C314.825 17.5 315.273 17.612 315.656 17.836C316.048 18.0507 316.346 18.3587 316.552 18.76V15.204C316.552 15.008 316.612 14.854 316.734 14.742C316.864 14.6207 317.037 14.56 317.252 14.56ZM314.648 23.478C315.254 23.478 315.726 23.268 316.062 22.848C316.398 22.428 316.566 21.8307 316.566 21.056C316.566 20.2813 316.398 19.684 316.062 19.264C315.735 18.844 315.264 18.634 314.648 18.634C314.032 18.634 313.551 18.844 313.206 19.264C312.87 19.6747 312.702 20.2627 312.702 21.028C312.702 21.7933 312.874 22.3953 313.22 22.834C313.565 23.2633 314.041 23.478 314.648 23.478ZM322.905 24.598C322.233 24.598 321.64 24.4533 321.127 24.164C320.623 23.8747 320.231 23.464 319.951 22.932C319.68 22.3907 319.545 21.7653 319.545 21.056C319.545 20.3373 319.68 19.712 319.951 19.18C320.231 18.6387 320.623 18.2233 321.127 17.934C321.64 17.6447 322.233 17.5 322.905 17.5C323.577 17.5 324.165 17.6447 324.669 17.934C325.182 18.2233 325.574 18.6387 325.845 19.18C326.125 19.712 326.265 20.3373 326.265 21.056C326.265 21.7653 326.125 22.3907 325.845 22.932C325.574 23.464 325.182 23.8747 324.669 24.164C324.165 24.4533 323.577 24.598 322.905 24.598ZM322.905 23.478C323.53 23.478 324.006 23.2727 324.333 22.862C324.669 22.4513 324.837 21.8493 324.837 21.056C324.837 20.272 324.669 19.6747 324.333 19.264C323.997 18.844 323.521 18.634 322.905 18.634C322.289 18.634 321.813 18.844 321.477 19.264C321.141 19.6747 320.973 20.272 320.973 21.056C320.973 21.8493 321.136 22.4513 321.463 22.862C321.799 23.2727 322.28 23.478 322.905 23.478ZM330.219 24.598C329.267 24.598 328.488 24.402 327.881 24.01C327.713 23.9073 327.592 23.8 327.517 23.688C327.452 23.576 327.419 23.45 327.419 23.31C327.419 23.1607 327.461 23.0347 327.545 22.932C327.629 22.8293 327.737 22.778 327.867 22.778C327.989 22.778 328.18 22.8527 328.441 23.002C328.721 23.1513 328.992 23.2727 329.253 23.366C329.524 23.4593 329.86 23.506 330.261 23.506C330.709 23.506 331.059 23.4267 331.311 23.268C331.563 23.1093 331.689 22.8853 331.689 22.596C331.689 22.4093 331.638 22.26 331.535 22.148C331.442 22.036 331.274 21.938 331.031 21.854C330.789 21.7607 330.429 21.6627 329.953 21.56C329.132 21.3827 328.539 21.1447 328.175 20.846C327.821 20.538 327.643 20.1227 327.643 19.6C327.643 19.1987 327.76 18.8393 327.993 18.522C328.227 18.1953 328.549 17.9433 328.959 17.766C329.37 17.5887 329.837 17.5 330.359 17.5C330.733 17.5 331.097 17.5513 331.451 17.654C331.806 17.7473 332.119 17.8873 332.389 18.074C332.697 18.2793 332.851 18.5173 332.851 18.788C332.851 18.9373 332.805 19.0633 332.711 19.166C332.627 19.2687 332.525 19.32 332.403 19.32C332.319 19.32 332.235 19.3013 332.151 19.264C332.067 19.2267 331.955 19.166 331.815 19.082C331.563 18.9327 331.325 18.816 331.101 18.732C330.887 18.648 330.616 18.606 330.289 18.606C329.897 18.606 329.58 18.69 329.337 18.858C329.104 19.026 328.987 19.2547 328.987 19.544C328.987 19.8053 329.095 20.0107 329.309 20.16C329.533 20.3 329.949 20.4353 330.555 20.566C331.181 20.6967 331.671 20.846 332.025 21.014C332.38 21.182 332.632 21.392 332.781 21.644C332.94 21.8867 333.019 22.1993 333.019 22.582C333.019 23.1887 332.763 23.6787 332.249 24.052C331.745 24.416 331.069 24.598 330.219 24.598Z" fill="white"/>
<rect x="280.7" y="0.7" width="67.6" height="38.6" rx="7.3" stroke="#FD377E" stroke-width="1.4"/>
<rect x="365.7" y="0.7" width="85.6" height="38.6" rx="7.3" fill="#E9ECEF"/>
<path d="M382.097 24.5C381.574 24.5 381.313 24.2387 381.313 23.716V15.414C381.313 14.8913 381.574 14.63 382.097 14.63H387.207C387.608 14.63 387.809 14.8213 387.809 15.204C387.809 15.6053 387.608 15.806 387.207 15.806H382.713V18.9H386.899C387.3 18.9 387.501 19.096 387.501 19.488C387.501 19.88 387.3 20.076 386.899 20.076H382.713V23.324H387.207C387.608 23.324 387.809 23.52 387.809 23.912C387.809 24.304 387.608 24.5 387.207 24.5H382.097ZM390.103 24.598C389.637 24.598 389.403 24.36 389.403 23.884V18.284C389.403 17.808 389.632 17.57 390.089 17.57C390.547 17.57 390.775 17.808 390.775 18.284V18.802C391.009 18.3913 391.326 18.0787 391.727 17.864C392.138 17.6493 392.595 17.542 393.099 17.542C394.714 17.542 395.521 18.4567 395.521 20.286V23.884C395.521 24.36 395.288 24.598 394.821 24.598C394.345 24.598 394.107 24.36 394.107 23.884V20.37C394.107 19.782 393.991 19.3527 393.757 19.082C393.533 18.8113 393.179 18.676 392.693 18.676C392.124 18.676 391.667 18.858 391.321 19.222C390.985 19.5767 390.817 20.048 390.817 20.636V23.884C390.817 24.36 390.579 24.598 390.103 24.598ZM400.382 24.626C399.523 24.626 398.884 24.4067 398.464 23.968C398.044 23.5293 397.834 22.8947 397.834 22.064V18.76H396.994C396.602 18.76 396.406 18.578 396.406 18.214C396.406 17.85 396.602 17.668 396.994 17.668H397.834V16.226C397.834 15.75 398.072 15.512 398.548 15.512C399.014 15.512 399.248 15.75 399.248 16.226V17.668H400.886C401.278 17.668 401.474 17.85 401.474 18.214C401.474 18.578 401.278 18.76 400.886 18.76H399.248V21.952C399.248 22.4467 399.35 22.82 399.556 23.072C399.77 23.324 400.116 23.45 400.592 23.45C400.76 23.45 400.904 23.436 401.026 23.408C401.147 23.3707 401.254 23.3473 401.348 23.338C401.45 23.338 401.534 23.3753 401.6 23.45C401.665 23.5153 401.698 23.646 401.698 23.842C401.698 23.9913 401.67 24.1267 401.614 24.248C401.567 24.36 401.478 24.4347 401.348 24.472C401.236 24.5187 401.082 24.556 400.886 24.584C400.699 24.612 400.531 24.626 400.382 24.626ZM403.297 24.598C402.821 24.598 402.583 24.36 402.583 23.884V18.284C402.583 17.808 402.812 17.57 403.269 17.57C403.726 17.57 403.955 17.808 403.955 18.284V18.886C404.142 18.466 404.422 18.144 404.795 17.92C405.178 17.696 405.64 17.5653 406.181 17.528C406.526 17.5 406.713 17.6867 406.741 18.088C406.778 18.4987 406.578 18.7227 406.139 18.76L405.873 18.788C404.632 18.9093 404.011 19.5487 404.011 20.706V23.884C404.011 24.36 403.773 24.598 403.297 24.598ZM409.921 24.626C409.445 24.626 409.02 24.5327 408.647 24.346C408.274 24.1593 407.975 23.9073 407.751 23.59C407.536 23.2727 407.429 22.9133 407.429 22.512C407.429 22.008 407.555 21.6113 407.807 21.322C408.068 21.0327 408.493 20.8227 409.081 20.692C409.678 20.5613 410.481 20.496 411.489 20.496H411.965V20.132C411.965 19.6 411.853 19.2173 411.629 18.984C411.405 18.7507 411.036 18.634 410.523 18.634C410.224 18.634 409.912 18.6713 409.585 18.746C409.268 18.8207 408.936 18.9467 408.591 19.124C408.395 19.2173 408.232 19.2313 408.101 19.166C407.98 19.1007 407.896 18.998 407.849 18.858C407.802 18.718 407.807 18.5733 407.863 18.424C407.919 18.2747 408.036 18.1627 408.213 18.088C408.624 17.9013 409.03 17.766 409.431 17.682C409.832 17.5887 410.21 17.542 410.565 17.542C411.498 17.542 412.189 17.766 412.637 18.214C413.085 18.6527 413.309 19.3433 413.309 20.286V23.884C413.309 24.36 413.09 24.598 412.651 24.598C412.203 24.598 411.979 24.36 411.979 23.884V23.366C411.811 23.758 411.55 24.066 411.195 24.29C410.84 24.514 410.416 24.626 409.921 24.626ZM410.201 23.618C410.705 23.618 411.125 23.4407 411.461 23.086C411.797 22.7313 411.965 22.2833 411.965 21.742V21.364H411.503C410.822 21.364 410.285 21.3967 409.893 21.462C409.51 21.5273 409.235 21.6393 409.067 21.798C408.908 21.9473 408.829 22.1573 408.829 22.428C408.829 22.7827 408.95 23.072 409.193 23.296C409.436 23.5107 409.772 23.618 410.201 23.618ZM417.861 24.626C417.263 24.626 416.736 24.486 416.279 24.206C415.831 23.9167 415.481 23.506 415.229 22.974C414.977 22.442 414.851 21.812 414.851 21.084C414.851 20.356 414.977 19.7307 415.229 19.208C415.481 18.676 415.831 18.2653 416.279 17.976C416.727 17.6867 417.254 17.542 417.861 17.542C418.374 17.542 418.831 17.654 419.233 17.878C419.634 18.102 419.933 18.4053 420.129 18.788V15.246C420.129 14.77 420.362 14.532 420.829 14.532C421.305 14.532 421.543 14.77 421.543 15.246V23.884C421.543 24.36 421.309 24.598 420.843 24.598C420.376 24.598 420.143 24.36 420.143 23.884V23.352C419.937 23.744 419.634 24.0567 419.233 24.29C418.831 24.514 418.374 24.626 417.861 24.626ZM418.225 23.534C418.803 23.534 419.27 23.324 419.625 22.904C419.979 22.484 420.157 21.8773 420.157 21.084C420.157 20.2907 419.979 19.6887 419.625 19.278C419.27 18.858 418.803 18.648 418.225 18.648C417.637 18.648 417.165 18.858 416.811 19.278C416.456 19.6887 416.279 20.2907 416.279 21.084C416.279 21.8773 416.456 22.484 416.811 22.904C417.165 23.324 417.637 23.534 418.225 23.534ZM425.712 24.626C425.236 24.626 424.812 24.5327 424.438 24.346C424.065 24.1593 423.766 23.9073 423.542 23.59C423.328 23.2727 423.22 22.9133 423.22 22.512C423.22 22.008 423.346 21.6113 423.598 21.322C423.86 21.0327 424.284 20.8227 424.872 20.692C425.47 20.5613 426.272 20.496 427.28 20.496H427.756V20.132C427.756 19.6 427.644 19.2173 427.42 18.984C427.196 18.7507 426.828 18.634 426.314 18.634C426.016 18.634 425.703 18.6713 425.376 18.746C425.059 18.8207 424.728 18.9467 424.382 19.124C424.186 19.2173 424.023 19.2313 423.892 19.166C423.771 19.1007 423.687 18.998 423.64 18.858C423.594 18.718 423.598 18.5733 423.654 18.424C423.71 18.2747 423.827 18.1627 424.004 18.088C424.415 17.9013 424.821 17.766 425.222 17.682C425.624 17.5887 426.002 17.542 426.356 17.542C427.29 17.542 427.98 17.766 428.428 18.214C428.876 18.6527 429.1 19.3433 429.1 20.286V23.884C429.1 24.36 428.881 24.598 428.442 24.598C427.994 24.598 427.77 24.36 427.77 23.884V23.366C427.602 23.758 427.341 24.066 426.986 24.29C426.632 24.514 426.207 24.626 425.712 24.626ZM425.992 23.618C426.496 23.618 426.916 23.4407 427.252 23.086C427.588 22.7313 427.756 22.2833 427.756 21.742V21.364H427.294C426.613 21.364 426.076 21.3967 425.684 21.462C425.302 21.5273 425.026 21.6393 424.858 21.798C424.7 21.9473 424.62 22.1573 424.62 22.428C424.62 22.7827 424.742 23.072 424.984 23.296C425.227 23.5107 425.563 23.618 425.992 23.618ZM433.442 24.626C433.031 24.626 432.606 24.5793 432.168 24.486C431.729 24.3927 431.332 24.234 430.978 24.01C430.819 23.9167 430.721 23.8 430.684 23.66C430.646 23.52 430.656 23.3893 430.712 23.268C430.768 23.1467 430.856 23.0627 430.978 23.016C431.108 22.96 431.253 22.974 431.412 23.058C431.776 23.254 432.126 23.394 432.462 23.478C432.798 23.562 433.129 23.604 433.456 23.604C433.95 23.604 434.324 23.5153 434.576 23.338C434.828 23.1607 434.954 22.9227 434.954 22.624C434.954 22.3813 434.87 22.1947 434.702 22.064C434.534 21.924 434.282 21.8167 433.946 21.742L432.616 21.476C431.44 21.2333 430.852 20.6267 430.852 19.656C430.852 19.012 431.108 18.4987 431.622 18.116C432.135 17.7333 432.807 17.542 433.638 17.542C434.478 17.542 435.201 17.7473 435.808 18.158C435.957 18.2513 436.046 18.368 436.074 18.508C436.102 18.6387 436.083 18.7647 436.018 18.886C435.952 18.998 435.854 19.0773 435.724 19.124C435.602 19.1707 435.458 19.152 435.29 19.068C435.01 18.9 434.73 18.7787 434.45 18.704C434.17 18.62 433.899 18.578 433.638 18.578C433.152 18.578 432.784 18.6713 432.532 18.858C432.28 19.0353 432.154 19.278 432.154 19.586C432.154 20.0527 432.462 20.3513 433.078 20.482L434.408 20.748C435.014 20.8693 435.472 21.0747 435.78 21.364C436.097 21.6533 436.256 22.0453 436.256 22.54C436.256 23.1933 435.999 23.7067 435.486 24.08C434.972 24.444 434.291 24.626 433.442 24.626Z" fill="#5B6166"/>
<rect x="365.7" y="0.7" width="85.6" height="38.6" rx="7.3" stroke="#E9ECEF" stroke-width="1.4"/>
<rect x="468.7" y="0.7" width="90.6" height="38.6" rx="7.3" fill="#E9ECEF"/>
<path d="M485.088 24.5C484.566 24.5 484.304 24.2387 484.304 23.716V15.414C484.304 14.8913 484.566 14.63 485.088 14.63H487.79C489.414 14.63 490.665 15.0547 491.542 15.904C492.429 16.7533 492.872 17.9713 492.872 19.558C492.872 21.1447 492.429 22.3673 491.542 23.226C490.665 24.0753 489.414 24.5 487.79 24.5H485.088ZM485.76 23.282H487.706C490.142 23.282 491.36 22.0407 491.36 19.558C491.36 17.0847 490.142 15.848 487.706 15.848H485.76V23.282ZM497.87 24.626C496.75 24.626 495.868 24.3133 495.224 23.688C494.58 23.0533 494.258 22.19 494.258 21.098C494.258 20.398 494.398 19.782 494.678 19.25C494.967 18.7087 495.364 18.2887 495.868 17.99C496.372 17.6913 496.951 17.542 497.604 17.542C498.547 17.542 499.289 17.8453 499.83 18.452C500.371 19.0493 500.642 19.8753 500.642 20.93C500.642 21.2473 500.455 21.406 500.082 21.406H495.63C495.733 22.8247 496.484 23.534 497.884 23.534C498.164 23.534 498.458 23.5013 498.766 23.436C499.074 23.3613 499.373 23.2307 499.662 23.044C499.858 22.932 500.026 22.8947 500.166 22.932C500.315 22.96 500.423 23.0393 500.488 23.17C500.553 23.2913 500.563 23.4313 500.516 23.59C500.479 23.7393 500.371 23.87 500.194 23.982C499.877 24.1967 499.503 24.36 499.074 24.472C498.654 24.5747 498.253 24.626 497.87 24.626ZM497.66 18.536C497.072 18.536 496.605 18.718 496.26 19.082C495.915 19.446 495.705 19.9313 495.63 20.538H499.452C499.424 19.9033 499.256 19.4133 498.948 19.068C498.64 18.7133 498.211 18.536 497.66 18.536ZM504.577 24.626C504.167 24.626 503.742 24.5793 503.303 24.486C502.865 24.3927 502.468 24.234 502.113 24.01C501.955 23.9167 501.857 23.8 501.819 23.66C501.782 23.52 501.791 23.3893 501.847 23.268C501.903 23.1467 501.992 23.0627 502.113 23.016C502.244 22.96 502.389 22.974 502.547 23.058C502.911 23.254 503.261 23.394 503.597 23.478C503.933 23.562 504.265 23.604 504.591 23.604C505.086 23.604 505.459 23.5153 505.711 23.338C505.963 23.1607 506.089 22.9227 506.089 22.624C506.089 22.3813 506.005 22.1947 505.837 22.064C505.669 21.924 505.417 21.8167 505.081 21.742L503.751 21.476C502.575 21.2333 501.987 20.6267 501.987 19.656C501.987 19.012 502.244 18.4987 502.757 18.116C503.271 17.7333 503.943 17.542 504.773 17.542C505.613 17.542 506.337 17.7473 506.943 18.158C507.093 18.2513 507.181 18.368 507.209 18.508C507.237 18.6387 507.219 18.7647 507.153 18.886C507.088 18.998 506.99 19.0773 506.859 19.124C506.738 19.1707 506.593 19.152 506.425 19.068C506.145 18.9 505.865 18.7787 505.585 18.704C505.305 18.62 505.035 18.578 504.773 18.578C504.288 18.578 503.919 18.6713 503.667 18.858C503.415 19.0353 503.289 19.278 503.289 19.586C503.289 20.0527 503.597 20.3513 504.213 20.482L505.543 20.748C506.15 20.8693 506.607 21.0747 506.915 21.364C507.233 21.6533 507.391 22.0453 507.391 22.54C507.391 23.1933 507.135 23.7067 506.621 24.08C506.108 24.444 505.427 24.626 504.577 24.626ZM509.665 27.118C509.198 27.118 508.965 26.88 508.965 26.404V18.284C508.965 17.808 509.193 17.57 509.651 17.57C510.117 17.57 510.351 17.808 510.351 18.284V18.816C510.556 18.424 510.859 18.116 511.261 17.892C511.662 17.6587 512.119 17.542 512.633 17.542C513.239 17.542 513.767 17.6867 514.215 17.976C514.672 18.2653 515.022 18.676 515.265 19.208C515.517 19.7307 515.643 20.356 515.643 21.084C515.643 21.812 515.517 22.442 515.265 22.974C515.022 23.506 514.672 23.9167 514.215 24.206C513.767 24.486 513.239 24.626 512.633 24.626C512.129 24.626 511.676 24.5187 511.275 24.304C510.883 24.08 510.584 23.7767 510.379 23.394V26.404C510.379 26.88 510.141 27.118 509.665 27.118ZM512.283 23.534C512.871 23.534 513.337 23.324 513.683 22.904C514.037 22.484 514.215 21.8773 514.215 21.084C514.215 20.2907 514.037 19.6887 513.683 19.278C513.337 18.858 512.871 18.648 512.283 18.648C511.695 18.648 511.223 18.858 510.869 19.278C510.523 19.6887 510.351 20.2907 510.351 21.084C510.351 21.8773 510.523 22.484 510.869 22.904C511.223 23.324 511.695 23.534 512.283 23.534ZM520.442 24.626C519.322 24.626 518.44 24.3133 517.796 23.688C517.152 23.0533 516.83 22.19 516.83 21.098C516.83 20.398 516.97 19.782 517.25 19.25C517.54 18.7087 517.936 18.2887 518.44 17.99C518.944 17.6913 519.523 17.542 520.176 17.542C521.119 17.542 521.861 17.8453 522.402 18.452C522.944 19.0493 523.214 19.8753 523.214 20.93C523.214 21.2473 523.028 21.406 522.654 21.406H518.202C518.305 22.8247 519.056 23.534 520.456 23.534C520.736 23.534 521.03 23.5013 521.338 23.436C521.646 23.3613 521.945 23.2307 522.234 23.044C522.43 22.932 522.598 22.8947 522.738 22.932C522.888 22.96 522.995 23.0393 523.06 23.17C523.126 23.2913 523.135 23.4313 523.088 23.59C523.051 23.7393 522.944 23.87 522.766 23.982C522.449 24.1967 522.076 24.36 521.646 24.472C521.226 24.5747 520.825 24.626 520.442 24.626ZM520.232 18.536C519.644 18.536 519.178 18.718 518.832 19.082C518.487 19.446 518.277 19.9313 518.202 20.538H522.024C521.996 19.9033 521.828 19.4133 521.52 19.068C521.212 18.7133 520.783 18.536 520.232 18.536ZM527.15 24.626C526.739 24.626 526.314 24.5793 525.876 24.486C525.437 24.3927 525.04 24.234 524.686 24.01C524.527 23.9167 524.429 23.8 524.392 23.66C524.354 23.52 524.364 23.3893 524.42 23.268C524.476 23.1467 524.564 23.0627 524.686 23.016C524.816 22.96 524.961 22.974 525.12 23.058C525.484 23.254 525.834 23.394 526.17 23.478C526.506 23.562 526.837 23.604 527.164 23.604C527.658 23.604 528.032 23.5153 528.284 23.338C528.536 23.1607 528.662 22.9227 528.662 22.624C528.662 22.3813 528.578 22.1947 528.41 22.064C528.242 21.924 527.99 21.8167 527.654 21.742L526.324 21.476C525.148 21.2333 524.56 20.6267 524.56 19.656C524.56 19.012 524.816 18.4987 525.33 18.116C525.843 17.7333 526.515 17.542 527.346 17.542C528.186 17.542 528.909 17.7473 529.516 18.158C529.665 18.2513 529.754 18.368 529.782 18.508C529.81 18.6387 529.791 18.7647 529.726 18.886C529.66 18.998 529.562 19.0773 529.432 19.124C529.31 19.1707 529.166 19.152 528.998 19.068C528.718 18.9 528.438 18.7787 528.158 18.704C527.878 18.62 527.607 18.578 527.346 18.578C526.86 18.578 526.492 18.6713 526.24 18.858C525.988 19.0353 525.862 19.278 525.862 19.586C525.862 20.0527 526.17 20.3513 526.786 20.482L528.116 20.748C528.722 20.8693 529.18 21.0747 529.488 21.364C529.805 21.6533 529.964 22.0453 529.964 22.54C529.964 23.1933 529.707 23.7067 529.194 24.08C528.68 24.444 527.999 24.626 527.15 24.626ZM533.721 24.626C533.245 24.626 532.82 24.5327 532.447 24.346C532.074 24.1593 531.775 23.9073 531.551 23.59C531.336 23.2727 531.229 22.9133 531.229 22.512C531.229 22.008 531.355 21.6113 531.607 21.322C531.868 21.0327 532.293 20.8227 532.881 20.692C533.478 20.5613 534.281 20.496 535.289 20.496H535.765V20.132C535.765 19.6 535.653 19.2173 535.429 18.984C535.205 18.7507 534.836 18.634 534.323 18.634C534.024 18.634 533.712 18.6713 533.385 18.746C533.068 18.8207 532.736 18.9467 532.391 19.124C532.195 19.2173 532.032 19.2313 531.901 19.166C531.78 19.1007 531.696 18.998 531.649 18.858C531.602 18.718 531.607 18.5733 531.663 18.424C531.719 18.2747 531.836 18.1627 532.013 18.088C532.424 17.9013 532.83 17.766 533.231 17.682C533.632 17.5887 534.01 17.542 534.365 17.542C535.298 17.542 535.989 17.766 536.437 18.214C536.885 18.6527 537.109 19.3433 537.109 20.286V23.884C537.109 24.36 536.89 24.598 536.451 24.598C536.003 24.598 535.779 24.36 535.779 23.884V23.366C535.611 23.758 535.35 24.066 534.995 24.29C534.64 24.514 534.216 24.626 533.721 24.626ZM534.001 23.618C534.505 23.618 534.925 23.4407 535.261 23.086C535.597 22.7313 535.765 22.2833 535.765 21.742V21.364H535.303C534.622 21.364 534.085 21.3967 533.693 21.462C533.31 21.5273 533.035 21.6393 532.867 21.798C532.708 21.9473 532.629 22.1573 532.629 22.428C532.629 22.7827 532.75 23.072 532.993 23.296C533.236 23.5107 533.572 23.618 534.001 23.618ZM541.451 24.626C541.04 24.626 540.615 24.5793 540.177 24.486C539.738 24.3927 539.341 24.234 538.986 24.01C538.828 23.9167 538.73 23.8 538.693 23.66C538.655 23.52 538.665 23.3893 538.721 23.268C538.777 23.1467 538.865 23.0627 538.986 23.016C539.117 22.96 539.262 22.974 539.421 23.058C539.785 23.254 540.135 23.394 540.471 23.478C540.807 23.562 541.138 23.604 541.465 23.604C541.959 23.604 542.333 23.5153 542.585 23.338C542.837 23.1607 542.963 22.9227 542.963 22.624C542.963 22.3813 542.879 22.1947 542.711 22.064C542.543 21.924 542.291 21.8167 541.955 21.742L540.625 21.476C539.449 21.2333 538.861 20.6267 538.861 19.656C538.861 19.012 539.117 18.4987 539.631 18.116C540.144 17.7333 540.816 17.542 541.647 17.542C542.487 17.542 543.21 17.7473 543.817 18.158C543.966 18.2513 544.055 18.368 544.083 18.508C544.111 18.6387 544.092 18.7647 544.027 18.886C543.961 18.998 543.863 19.0773 543.733 19.124C543.611 19.1707 543.467 19.152 543.299 19.068C543.019 18.9 542.739 18.7787 542.459 18.704C542.179 18.62 541.908 18.578 541.647 18.578C541.161 18.578 540.793 18.6713 540.541 18.858C540.289 19.0353 540.163 19.278 540.163 19.586C540.163 20.0527 540.471 20.3513 541.087 20.482L542.417 20.748C543.023 20.8693 543.481 21.0747 543.789 21.364C544.106 21.6533 544.265 22.0453 544.265 22.54C544.265 23.1933 544.008 23.7067 543.495 24.08C542.981 24.444 542.3 24.626 541.451 24.626Z" fill="#5B6166"/>
<rect x="468.7" y="0.7" width="90.6" height="38.6" rx="7.3" stroke="#E9ECEF" stroke-width="1.4"/>
</svg>
